%FSLAX45Y45*%
G04 Gerber Fmt 4.5, Leading zero omitted, Abs format (unit mm)*
G04 Created by KiCad (PCBNEW (5.1.10-1-10_14)) date 2021-11-04 03:33:29*
%MOMM*%
%LPD*%
G01*
G04 APERTURE LIST*
%TA.AperFunction,Profile*%
%ADD10C,0.050000*%
%TD*%
%ADD11C,0.200000*%
%ADD12C,0.300000*%
G04 APERTURE END LIST*
D10*
X50000000Y-15986000D02*
X49784000Y-15986000D01*
X50000000Y-15764000D02*
X50000000Y-15986000D01*
X38354000Y-15986000D02*
X49784000Y-15986000D01*
X50000000Y-4000000D02*
X50000000Y-15764000D01*
X5000000Y-6000000D02*
X5000000Y-4000000D01*
X35000000Y-4000000D02*
X50000000Y-4000000D01*
X5000000Y-16000000D02*
X5000000Y-6000000D01*
X38354000Y-15986000D02*
X5000000Y-16000000D01*
X5000000Y-4000000D02*
X35000000Y-4000000D01*
D11*
X5395000Y-4379000D02*
X6035000Y-5019000D01*
X6035000Y-4379000D02*
X5395000Y-5019000D01*
X5395000Y-15047000D02*
X6035000Y-15687000D01*
X6035000Y-15047000D02*
X5395000Y-15687000D01*
X27112000Y-4379000D02*
X27752000Y-5019000D01*
X27752000Y-4379000D02*
X27112000Y-5019000D01*
X27112000Y-15047000D02*
X27752000Y-15687000D01*
X27752000Y-15047000D02*
X27112000Y-15687000D01*
X46670000Y-15047000D02*
X47310000Y-15687000D01*
X47310000Y-15047000D02*
X46670000Y-15687000D01*
D12*
X5283928Y-16468214D02*
X5283928Y-16168214D01*
X5355357Y-16168214D01*
X5398214Y-16182500D01*
X5426786Y-16211071D01*
X5441071Y-16239643D01*
X5455357Y-16296786D01*
X5455357Y-16339643D01*
X5441071Y-16396786D01*
X5426786Y-16425357D01*
X5398214Y-16453929D01*
X5355357Y-16468214D01*
X5283928Y-16468214D01*
X5583928Y-16468214D02*
X5583928Y-16268214D01*
X5583928Y-16325357D02*
X5598214Y-16296786D01*
X5612500Y-16282500D01*
X5641071Y-16268214D01*
X5669643Y-16268214D01*
X5769643Y-16468214D02*
X5769643Y-16268214D01*
X5769643Y-16168214D02*
X5755357Y-16182500D01*
X5769643Y-16196786D01*
X5783928Y-16182500D01*
X5769643Y-16168214D01*
X5769643Y-16196786D01*
X5955357Y-16468214D02*
X5926786Y-16453929D01*
X5912500Y-16425357D01*
X5912500Y-16168214D01*
X6112500Y-16468214D02*
X6083928Y-16453929D01*
X6069643Y-16425357D01*
X6069643Y-16168214D01*
X6455357Y-16468214D02*
X6455357Y-16168214D01*
X6555357Y-16382500D01*
X6655357Y-16168214D01*
X6655357Y-16468214D01*
X6926786Y-16468214D02*
X6926786Y-16311071D01*
X6912500Y-16282500D01*
X6883928Y-16268214D01*
X6826786Y-16268214D01*
X6798214Y-16282500D01*
X6926786Y-16453929D02*
X6898214Y-16468214D01*
X6826786Y-16468214D01*
X6798214Y-16453929D01*
X6783928Y-16425357D01*
X6783928Y-16396786D01*
X6798214Y-16368214D01*
X6826786Y-16353929D01*
X6898214Y-16353929D01*
X6926786Y-16339643D01*
X7069643Y-16268214D02*
X7069643Y-16568214D01*
X7069643Y-16282500D02*
X7098214Y-16268214D01*
X7155357Y-16268214D01*
X7183928Y-16282500D01*
X7198214Y-16296786D01*
X7212500Y-16325357D01*
X7212500Y-16411071D01*
X7198214Y-16439643D01*
X7183928Y-16453929D01*
X7155357Y-16468214D01*
X7098214Y-16468214D01*
X7069643Y-16453929D01*
X7341071Y-16439643D02*
X7355357Y-16453929D01*
X7341071Y-16468214D01*
X7326786Y-16453929D01*
X7341071Y-16439643D01*
X7341071Y-16468214D01*
X7341071Y-16282500D02*
X7355357Y-16296786D01*
X7341071Y-16311071D01*
X7326786Y-16296786D01*
X7341071Y-16282500D01*
X7341071Y-16311071D01*
X4357500Y-16642500D02*
X4997500Y-17282500D01*
X4997500Y-16642500D02*
X4357500Y-17282500D01*
X5412500Y-16798214D02*
X5355357Y-16798214D01*
X5326786Y-16812500D01*
X5312500Y-16826786D01*
X5283928Y-16869643D01*
X5269643Y-16926786D01*
X5269643Y-17041072D01*
X5283928Y-17069643D01*
X5298214Y-17083929D01*
X5326786Y-17098214D01*
X5383928Y-17098214D01*
X5412500Y-17083929D01*
X5426786Y-17069643D01*
X5441071Y-17041072D01*
X5441071Y-16969643D01*
X5426786Y-16941072D01*
X5412500Y-16926786D01*
X5383928Y-16912500D01*
X5326786Y-16912500D01*
X5298214Y-16926786D01*
X5283928Y-16941072D01*
X5269643Y-16969643D01*
X5569643Y-17069643D02*
X5583928Y-17083929D01*
X5569643Y-17098214D01*
X5555357Y-17083929D01*
X5569643Y-17069643D01*
X5569643Y-17098214D01*
X5841071Y-16898214D02*
X5841071Y-17098214D01*
X5769643Y-16783929D02*
X5698214Y-16998214D01*
X5883928Y-16998214D01*
X6055357Y-16798214D02*
X6083928Y-16798214D01*
X6112500Y-16812500D01*
X6126786Y-16826786D01*
X6141071Y-16855357D01*
X6155357Y-16912500D01*
X6155357Y-16983929D01*
X6141071Y-17041072D01*
X6126786Y-17069643D01*
X6112500Y-17083929D01*
X6083928Y-17098214D01*
X6055357Y-17098214D01*
X6026786Y-17083929D01*
X6012500Y-17069643D01*
X5998214Y-17041072D01*
X5983928Y-16983929D01*
X5983928Y-16912500D01*
X5998214Y-16855357D01*
X6012500Y-16826786D01*
X6026786Y-16812500D01*
X6055357Y-16798214D01*
X6341071Y-16798214D02*
X6369643Y-16798214D01*
X6398214Y-16812500D01*
X6412500Y-16826786D01*
X6426786Y-16855357D01*
X6441071Y-16912500D01*
X6441071Y-16983929D01*
X6426786Y-17041072D01*
X6412500Y-17069643D01*
X6398214Y-17083929D01*
X6369643Y-17098214D01*
X6341071Y-17098214D01*
X6312500Y-17083929D01*
X6298214Y-17069643D01*
X6283928Y-17041072D01*
X6269643Y-16983929D01*
X6269643Y-16912500D01*
X6283928Y-16855357D01*
X6298214Y-16826786D01*
X6312500Y-16812500D01*
X6341071Y-16798214D01*
X6569643Y-17098214D02*
X6569643Y-16898214D01*
X6569643Y-16926786D02*
X6583928Y-16912500D01*
X6612500Y-16898214D01*
X6655357Y-16898214D01*
X6683928Y-16912500D01*
X6698214Y-16941072D01*
X6698214Y-17098214D01*
X6698214Y-16941072D02*
X6712500Y-16912500D01*
X6741071Y-16898214D01*
X6783928Y-16898214D01*
X6812500Y-16912500D01*
X6826786Y-16941072D01*
X6826786Y-17098214D01*
X6969643Y-17098214D02*
X6969643Y-16898214D01*
X6969643Y-16926786D02*
X6983928Y-16912500D01*
X7012500Y-16898214D01*
X7055357Y-16898214D01*
X7083928Y-16912500D01*
X7098214Y-16941072D01*
X7098214Y-17098214D01*
X7098214Y-16941072D02*
X7112500Y-16912500D01*
X7141071Y-16898214D01*
X7183928Y-16898214D01*
X7212500Y-16912500D01*
X7226786Y-16941072D01*
X7226786Y-17098214D01*
X7812500Y-16783929D02*
X7555357Y-17169643D01*
X8198214Y-16798214D02*
X8226786Y-16798214D01*
X8255357Y-16812500D01*
X8269643Y-16826786D01*
X8283928Y-16855357D01*
X8298214Y-16912500D01*
X8298214Y-16983929D01*
X8283928Y-17041072D01*
X8269643Y-17069643D01*
X8255357Y-17083929D01*
X8226786Y-17098214D01*
X8198214Y-17098214D01*
X8169643Y-17083929D01*
X8155357Y-17069643D01*
X8141071Y-17041072D01*
X8126786Y-16983929D01*
X8126786Y-16912500D01*
X8141071Y-16855357D01*
X8155357Y-16826786D01*
X8169643Y-16812500D01*
X8198214Y-16798214D01*
X8426786Y-17069643D02*
X8441071Y-17083929D01*
X8426786Y-17098214D01*
X8412500Y-17083929D01*
X8426786Y-17069643D01*
X8426786Y-17098214D01*
X8555357Y-16826786D02*
X8569643Y-16812500D01*
X8598214Y-16798214D01*
X8669643Y-16798214D01*
X8698214Y-16812500D01*
X8712500Y-16826786D01*
X8726786Y-16855357D01*
X8726786Y-16883929D01*
X8712500Y-16926786D01*
X8541071Y-17098214D01*
X8726786Y-17098214D01*
X8998214Y-16798214D02*
X8855357Y-16798214D01*
X8841071Y-16941072D01*
X8855357Y-16926786D01*
X8883928Y-16912500D01*
X8955357Y-16912500D01*
X8983928Y-16926786D01*
X8998214Y-16941072D01*
X9012500Y-16969643D01*
X9012500Y-17041072D01*
X8998214Y-17069643D01*
X8983928Y-17083929D01*
X8955357Y-17098214D01*
X8883928Y-17098214D01*
X8855357Y-17083929D01*
X8841071Y-17069643D01*
X9126786Y-16826786D02*
X9141071Y-16812500D01*
X9169643Y-16798214D01*
X9241071Y-16798214D01*
X9269643Y-16812500D01*
X9283928Y-16826786D01*
X9298214Y-16855357D01*
X9298214Y-16883929D01*
X9283928Y-16926786D01*
X9112500Y-17098214D01*
X9298214Y-17098214D01*
X9483928Y-16798214D02*
X9512500Y-16798214D01*
X9541071Y-16812500D01*
X9555357Y-16826786D01*
X9569643Y-16855357D01*
X9583928Y-16912500D01*
X9583928Y-16983929D01*
X9569643Y-17041072D01*
X9555357Y-17069643D01*
X9541071Y-17083929D01*
X9512500Y-17098214D01*
X9483928Y-17098214D01*
X9455357Y-17083929D01*
X9441071Y-17069643D01*
X9426786Y-17041072D01*
X9412500Y-16983929D01*
X9412500Y-16912500D01*
X9426786Y-16855357D01*
X9441071Y-16826786D01*
X9455357Y-16812500D01*
X9483928Y-16798214D01*
X9698214Y-16798214D02*
X9698214Y-16855357D01*
X9812500Y-16798214D02*
X9812500Y-16855357D01*
X10255357Y-17212500D02*
X10241071Y-17198214D01*
X10212500Y-17155357D01*
X10198214Y-17126786D01*
X10183928Y-17083929D01*
X10169643Y-17012500D01*
X10169643Y-16955357D01*
X10183928Y-16883929D01*
X10198214Y-16841072D01*
X10212500Y-16812500D01*
X10241071Y-16769643D01*
X10255357Y-16755357D01*
X10512500Y-16798214D02*
X10369643Y-16798214D01*
X10355357Y-16941072D01*
X10369643Y-16926786D01*
X10398214Y-16912500D01*
X10469643Y-16912500D01*
X10498214Y-16926786D01*
X10512500Y-16941072D01*
X10526786Y-16969643D01*
X10526786Y-17041072D01*
X10512500Y-17069643D01*
X10498214Y-17083929D01*
X10469643Y-17098214D01*
X10398214Y-17098214D01*
X10369643Y-17083929D01*
X10355357Y-17069643D01*
X10883928Y-17098214D02*
X10883928Y-16798214D01*
X11012500Y-17098214D02*
X11012500Y-16941072D01*
X10998214Y-16912500D01*
X10969643Y-16898214D01*
X10926786Y-16898214D01*
X10898214Y-16912500D01*
X10883928Y-16926786D01*
X11198214Y-17098214D02*
X11169643Y-17083929D01*
X11155357Y-17069643D01*
X11141071Y-17041072D01*
X11141071Y-16955357D01*
X11155357Y-16926786D01*
X11169643Y-16912500D01*
X11198214Y-16898214D01*
X11241071Y-16898214D01*
X11269643Y-16912500D01*
X11283928Y-16926786D01*
X11298214Y-16955357D01*
X11298214Y-17041072D01*
X11283928Y-17069643D01*
X11269643Y-17083929D01*
X11241071Y-17098214D01*
X11198214Y-17098214D01*
X11469643Y-17098214D02*
X11441071Y-17083929D01*
X11426786Y-17055357D01*
X11426786Y-16798214D01*
X11698214Y-17083929D02*
X11669643Y-17098214D01*
X11612500Y-17098214D01*
X11583928Y-17083929D01*
X11569643Y-17055357D01*
X11569643Y-16941072D01*
X11583928Y-16912500D01*
X11612500Y-16898214D01*
X11669643Y-16898214D01*
X11698214Y-16912500D01*
X11712500Y-16941072D01*
X11712500Y-16969643D01*
X11569643Y-16998214D01*
X11826786Y-17083929D02*
X11855357Y-17098214D01*
X11912500Y-17098214D01*
X11941071Y-17083929D01*
X11955357Y-17055357D01*
X11955357Y-17041072D01*
X11941071Y-17012500D01*
X11912500Y-16998214D01*
X11869643Y-16998214D01*
X11841071Y-16983929D01*
X11826786Y-16955357D01*
X11826786Y-16941072D01*
X11841071Y-16912500D01*
X11869643Y-16898214D01*
X11912500Y-16898214D01*
X11941071Y-16912500D01*
X12055357Y-17212500D02*
X12069643Y-17198214D01*
X12098214Y-17155357D01*
X12112500Y-17126786D01*
X12126786Y-17083929D01*
X12141071Y-17012500D01*
X12141071Y-16955357D01*
X12126786Y-16883929D01*
X12112500Y-16841072D01*
X12098214Y-16812500D01*
X12069643Y-16769643D01*
X12055357Y-16755357D01*
X12598214Y-17212500D02*
X12583928Y-17198214D01*
X12555357Y-17155357D01*
X12541071Y-17126786D01*
X12526786Y-17083929D01*
X12512500Y-17012500D01*
X12512500Y-16955357D01*
X12526786Y-16883929D01*
X12541071Y-16841072D01*
X12555357Y-16812500D01*
X12583928Y-16769643D01*
X12598214Y-16755357D01*
X12712500Y-16898214D02*
X12712500Y-17098214D01*
X12712500Y-16926786D02*
X12726786Y-16912500D01*
X12755357Y-16898214D01*
X12798214Y-16898214D01*
X12826786Y-16912500D01*
X12841071Y-16941072D01*
X12841071Y-17098214D01*
X13026786Y-17098214D02*
X12998214Y-17083929D01*
X12983928Y-17069643D01*
X12969643Y-17041072D01*
X12969643Y-16955357D01*
X12983928Y-16926786D01*
X12998214Y-16912500D01*
X13026786Y-16898214D01*
X13069643Y-16898214D01*
X13098214Y-16912500D01*
X13112500Y-16926786D01*
X13126786Y-16955357D01*
X13126786Y-17041072D01*
X13112500Y-17069643D01*
X13098214Y-17083929D01*
X13069643Y-17098214D01*
X13026786Y-17098214D01*
X13212500Y-16898214D02*
X13326786Y-16898214D01*
X13255357Y-16798214D02*
X13255357Y-17055357D01*
X13269643Y-17083929D01*
X13298214Y-17098214D01*
X13326786Y-17098214D01*
X13655357Y-16898214D02*
X13655357Y-17198214D01*
X13655357Y-16912500D02*
X13683928Y-16898214D01*
X13741071Y-16898214D01*
X13769643Y-16912500D01*
X13783928Y-16926786D01*
X13798214Y-16955357D01*
X13798214Y-17041072D01*
X13783928Y-17069643D01*
X13769643Y-17083929D01*
X13741071Y-17098214D01*
X13683928Y-17098214D01*
X13655357Y-17083929D01*
X13969643Y-17098214D02*
X13941071Y-17083929D01*
X13926786Y-17055357D01*
X13926786Y-16798214D01*
X14212500Y-17098214D02*
X14212500Y-16941072D01*
X14198214Y-16912500D01*
X14169643Y-16898214D01*
X14112500Y-16898214D01*
X14083928Y-16912500D01*
X14212500Y-17083929D02*
X14183928Y-17098214D01*
X14112500Y-17098214D01*
X14083928Y-17083929D01*
X14069643Y-17055357D01*
X14069643Y-17026786D01*
X14083928Y-16998214D01*
X14112500Y-16983929D01*
X14183928Y-16983929D01*
X14212500Y-16969643D01*
X14312500Y-16898214D02*
X14426786Y-16898214D01*
X14355357Y-16798214D02*
X14355357Y-17055357D01*
X14369643Y-17083929D01*
X14398214Y-17098214D01*
X14426786Y-17098214D01*
X14641071Y-17083929D02*
X14612500Y-17098214D01*
X14555357Y-17098214D01*
X14526786Y-17083929D01*
X14512500Y-17055357D01*
X14512500Y-16941072D01*
X14526786Y-16912500D01*
X14555357Y-16898214D01*
X14612500Y-16898214D01*
X14641071Y-16912500D01*
X14655357Y-16941072D01*
X14655357Y-16969643D01*
X14512500Y-16998214D01*
X14912500Y-17098214D02*
X14912500Y-16798214D01*
X14912500Y-17083929D02*
X14883928Y-17098214D01*
X14826786Y-17098214D01*
X14798214Y-17083929D01*
X14783928Y-17069643D01*
X14769643Y-17041072D01*
X14769643Y-16955357D01*
X14783928Y-16926786D01*
X14798214Y-16912500D01*
X14826786Y-16898214D01*
X14883928Y-16898214D01*
X14912500Y-16912500D01*
X15026786Y-17212500D02*
X15041071Y-17198214D01*
X15069643Y-17155357D01*
X15083928Y-17126786D01*
X15098214Y-17083929D01*
X15112500Y-17012500D01*
X15112500Y-16955357D01*
X15098214Y-16883929D01*
X15083928Y-16841072D01*
X15069643Y-16812500D01*
X15041071Y-16769643D01*
X15026786Y-16755357D01*
M02*
