M48
; DRILL file {KiCad (5.1.10-1-10_14)} date Thursday, November 04, 2021 at 03:33:23 AM
; FORMAT={-:-/ absolute / metric / decimal}
; #@! TF.CreationDate,2021-11-04T03:33:23+08:00
; #@! TF.GenerationSoftware,Kicad,Pcbnew,(5.1.10-1-10_14)
; #@! TF.FileFunction,Plated,1,2,PTH
FMAT,2
METRIC
T1C0.400
T2C0.500
T3C0.700
T4C0.800
T5C1.000
%
G90
G05
T1
X73.66Y-104.14
X73.66Y-113.03
X73.66Y-120.65
X74.93Y-95.25
X76.2Y-86.36
X76.2Y-132.08
X77.47Y-81.28
X78.74Y-83.82
X78.74Y-91.44
X78.74Y-99.06
X78.74Y-106.68
X78.74Y-115.57
X78.74Y-128.27
X82.55Y-78.74
X86.36Y-91.44
X86.36Y-99.06
X86.36Y-106.68
X86.36Y-114.3
X87.63Y-118.897
X88.9Y-93.98
X88.9Y-123.19
X88.9Y-133.35
X90.17Y-102.87
X91.44Y-111.76
X91.44Y-138.43
X92.71Y-120.65
X92.71Y-125.73
X93.98Y-123.19
X93.98Y-133.35
X95.25Y-121.92
X95.25Y-138.43
X96.52Y-120.65
X101.6Y-125.73
X101.6Y-133.35
X102.87Y-120.65
X102.87Y-138.43
X106.68Y-129.54
X107.95Y-139.7
X109.22Y-125.73
X109.22Y-133.35
X110.49Y-120.65
X110.49Y-138.43
X116.84Y-125.73
X116.84Y-133.35
X118.11Y-120.65
X118.11Y-138.43
X119.38Y-81.28
X119.38Y-88.9
X119.38Y-96.52
X119.38Y-105.41
X120.65Y-72.39
X120.65Y-116.84
X121.92Y-115.57
X124.46Y-74.93
X124.46Y-82.55
X124.46Y-90.17
X124.46Y-97.79
X124.46Y-105.41
X124.46Y-116.84
X124.46Y-125.73
X124.46Y-133.35
X125.73Y-120.65
X125.73Y-138.43
X128.27Y-100.33
X128.27Y-100.33
X129.54Y-59.69
X129.54Y-66.04
X132.08Y-76.2
X132.08Y-83.82
X132.08Y-91.44
X132.08Y-99.06
X132.08Y-106.68
X132.08Y-125.73
X133.35Y-73.66
X133.35Y-111.76
X133.35Y-120.65
X134.592Y-120.172
X134.62Y-110.49
X135.89Y-106.68
X135.89Y-113.03
X137.16Y-68.58
X137.16Y-82.55
X137.16Y-90.17
X137.16Y-97.79
X137.16Y-101.6
X137.16Y-129.54
X138.43Y-100.33
X139.7Y-64.77
X139.7Y-72.39
X139.7Y-76.2
X139.7Y-125.73
X140.97Y-59.69
X140.97Y-121.92
X142.24Y-76.2
X144.78Y-77.47
X147.32Y-64.77
X147.32Y-72.39
X147.32Y-78.74
X147.32Y-125.73
X148.59Y-59.69
X148.59Y-77.47
X148.59Y-121.92
X148.59Y-127.0
X148.59Y-129.54
X151.13Y-121.92
X151.13Y-123.19
X152.4Y-116.84
X152.4Y-129.54
X154.94Y-64.77
X154.94Y-72.39
X154.94Y-116.84
X154.94Y-133.35
X156.21Y-59.69
X156.21Y-77.47
X156.21Y-121.92
X156.21Y-124.46
X156.21Y-127.0
X156.24Y-134.65
X158.75Y-123.19
X161.29Y-129.54
X162.56Y-64.77
X162.56Y-72.39
X163.83Y-59.69
X163.83Y-77.47
X163.83Y-134.62
X170.18Y-64.77
X170.18Y-72.39
X170.18Y-125.73
X170.18Y-133.35
X171.45Y-59.69
X171.45Y-77.47
X171.45Y-120.65
X171.45Y-134.62
X173.99Y-113.03
X173.99Y-135.89
X175.26Y-68.58
X175.26Y-78.74
X175.26Y-111.76
X175.26Y-137.16
X177.8Y-64.77
X177.8Y-72.39
X177.8Y-125.73
X177.8Y-133.35
X179.07Y-59.69
X179.07Y-77.47
X179.07Y-120.65
X179.07Y-135.89
X180.34Y-114.3
X180.34Y-132.08
X185.42Y-64.77
X185.42Y-72.39
X185.42Y-125.73
X185.42Y-133.35
X186.69Y-59.69
X186.69Y-77.47
X186.69Y-120.65
X186.69Y-137.16
X187.96Y-115.57
X187.96Y-132.08
X193.04Y-64.77
X193.04Y-72.39
X193.04Y-125.73
X193.04Y-133.35
X194.31Y-59.69
X194.31Y-77.47
X194.31Y-120.65
X194.31Y-138.43
X195.58Y-119.38
X195.58Y-132.08
X198.12Y-119.38
X198.12Y-129.54
X200.66Y-64.77
X200.66Y-72.39
X200.66Y-125.73
X200.66Y-133.35
X201.93Y-59.69
X201.93Y-77.47
X201.93Y-120.65
X201.93Y-138.43
X208.28Y-64.77
X208.28Y-72.39
X208.28Y-125.73
X208.28Y-133.35
X209.55Y-59.69
X209.55Y-77.47
X209.55Y-120.65
X209.55Y-138.43
X213.36Y-68.58
X213.36Y-78.74
X215.9Y-64.77
X215.9Y-72.39
X215.9Y-118.11
X215.9Y-125.73
X215.9Y-133.35
X217.17Y-59.69
X217.17Y-77.47
X217.17Y-120.65
X217.17Y-138.43
X218.44Y-91.44
X219.71Y-58.42
X219.71Y-83.82
X220.98Y-88.9
X220.98Y-91.44
X220.98Y-118.11
X223.52Y-64.77
X223.52Y-72.39
X223.52Y-125.73
X223.52Y-133.35
X224.79Y-59.69
X224.79Y-77.47
X224.79Y-120.65
X224.79Y-138.43
X226.06Y-86.36
X226.06Y-118.11
X228.6Y-99.06
X229.87Y-97.79
X231.14Y-64.77
X231.14Y-72.39
X231.14Y-99.06
X231.14Y-118.11
X231.14Y-125.73
X231.14Y-133.35
X232.41Y-59.69
X232.41Y-77.47
X232.41Y-120.65
X232.41Y-138.43
X236.22Y-118.11
X237.49Y-106.68
X237.49Y-107.95
X237.49Y-109.22
X238.76Y-64.77
X238.76Y-72.39
X238.76Y-125.73
X238.76Y-133.35
X240.03Y-59.69
X240.03Y-77.47
X240.03Y-120.65
X240.03Y-127.0
X240.03Y-138.43
X243.84Y-119.38
X243.84Y-129.54
X246.38Y-64.77
X246.38Y-72.39
X246.38Y-119.38
X246.38Y-125.73
X246.38Y-133.35
X247.65Y-59.69
X247.65Y-77.47
X247.65Y-120.65
X247.65Y-138.43
X251.46Y-68.58
X251.46Y-78.74
X254.0Y-64.77
X254.0Y-72.39
X254.0Y-125.73
X254.0Y-133.35
X255.27Y-59.69
X255.27Y-77.47
X255.27Y-120.65
X255.27Y-138.43
X261.62Y-64.77
X261.62Y-72.39
X261.62Y-125.73
X261.62Y-133.35
X262.89Y-59.69
X262.89Y-77.47
X262.89Y-120.65
X262.89Y-138.43
X266.7Y-68.58
X266.7Y-80.01
X269.24Y-64.77
X269.24Y-72.39
X269.24Y-125.73
X269.24Y-133.35
X270.51Y-59.69
X270.51Y-77.47
X270.51Y-120.65
X270.51Y-138.43
X275.59Y-62.23
X276.86Y-64.77
X276.86Y-72.39
X276.86Y-125.73
X276.86Y-133.35
X278.13Y-59.69
X278.13Y-77.47
X278.13Y-80.01
X278.13Y-120.65
X278.13Y-138.43
X281.94Y-119.38
X281.94Y-129.54
X283.21Y-78.74
X284.48Y-64.77
X284.48Y-72.39
X285.75Y-59.69
X285.75Y-77.47
X288.29Y-60.96
X288.29Y-78.74
X290.83Y-80.01
X292.1Y-64.77
X292.1Y-72.39
X293.37Y-59.69
X293.37Y-77.47
X294.64Y-63.5
X294.64Y-78.74
X295.275Y-106.045
X298.45Y-80.01
X299.72Y-64.77
X299.72Y-72.39
X299.72Y-105.41
X300.99Y-59.69
X300.99Y-77.47
X300.99Y-80.01
X303.53Y-91.44
X304.8Y-68.58
X304.8Y-80.01
X306.07Y-91.44
X307.34Y-64.77
X307.34Y-72.39
X308.61Y-59.69
X308.61Y-77.47
X314.96Y-64.77
X314.96Y-72.39
X314.96Y-111.76
X316.23Y-59.69
X316.23Y-77.47
X317.5Y-114.3
X317.5Y-123.19
X317.5Y-134.62
X318.77Y-54.61
X318.77Y-80.01
X320.04Y-111.76
X320.04Y-116.84
X320.04Y-129.54
X322.58Y-64.77
X322.58Y-72.39
X322.58Y-120.65
X322.58Y-128.27
X322.58Y-132.08
X322.58Y-135.89
X323.85Y-59.69
X323.85Y-77.47
X323.85Y-127.0
X323.85Y-132.08
X325.12Y-127.0
X325.12Y-132.08
X330.2Y-64.77
X330.2Y-72.39
X330.2Y-107.95
X330.2Y-115.812
X330.2Y-130.81
X331.47Y-59.69
X331.47Y-77.47
X335.28Y-68.58
X335.28Y-78.74
X336.55Y-121.92
X336.55Y-125.73
X337.82Y-102.87
X337.82Y-127.0
X339.09Y-101.6
X339.09Y-107.95
X339.09Y-121.92
X339.09Y-133.35
X341.63Y-110.49
X344.17Y-100.33
X344.17Y-111.76
X344.17Y-114.3
X345.44Y-124.46
X345.44Y-125.73
X345.44Y-133.35
X346.71Y-111.76
X346.71Y-134.62
X347.98Y-110.49
X349.25Y-120.65
X349.25Y-123.19
X350.52Y-100.33
X350.52Y-120.65
X351.79Y-118.11
X353.06Y-125.73
X353.06Y-133.35
X354.33Y-118.11
X354.33Y-133.35
X354.33Y-135.89
X356.87Y-99.06
X358.14Y-116.84
X360.68Y-95.25
X360.68Y-125.73
X360.68Y-133.35
X361.95Y-118.11
X361.95Y-129.54
X361.95Y-137.16
X363.22Y-123.19
X363.22Y-125.73
X363.22Y-133.35
X365.76Y-116.84
X365.76Y-129.54
X368.3Y-125.73
X368.3Y-133.35
X369.57Y-125.73
X369.57Y-138.43
X370.84Y-120.65
X370.84Y-133.35
X374.65Y-86.36
X374.65Y-93.98
X375.88Y-91.44
X375.92Y-118.11
X375.92Y-125.73
X375.92Y-133.35
X377.19Y-50.8
X377.19Y-54.61
X377.19Y-88.9
X377.19Y-120.65
X377.19Y-138.43
X381.0Y-52.07
X381.0Y-90.17
X382.27Y-118.11
X383.54Y-125.73
X383.54Y-133.35
X384.81Y-81.28
X384.81Y-120.65
X384.81Y-138.43
X387.35Y-49.53
X387.35Y-100.33
X388.62Y-100.33
X388.62Y-118.11
X389.89Y-100.33
X391.16Y-100.33
X391.16Y-125.73
X391.16Y-133.35
X392.43Y-53.34
X392.43Y-57.15
X392.43Y-120.65
X392.43Y-138.43
X394.97Y-118.11
X396.24Y-52.07
X398.78Y-125.73
X398.78Y-133.35
X400.05Y-120.65
X400.05Y-138.43
X401.32Y-55.88
X401.32Y-109.22
X402.59Y-49.53
X403.86Y-55.88
X403.86Y-109.22
X403.86Y-118.11
X403.86Y-129.54
X406.4Y-109.22
X406.4Y-125.73
X406.4Y-133.35
X407.67Y-53.34
X407.67Y-120.65
X407.67Y-138.43
X408.94Y-109.22
X411.48Y-52.07
X412.75Y-53.34
X414.02Y-125.73
X414.02Y-133.35
X415.29Y-120.65
X415.29Y-138.43
X417.83Y-49.53
X417.83Y-57.15
X421.64Y-125.73
X421.64Y-133.35
X422.91Y-53.34
X422.91Y-120.65
X422.91Y-138.43
X426.72Y-52.07
X429.26Y-43.18
X429.26Y-125.73
X429.26Y-133.35
X430.53Y-120.65
X430.53Y-138.43
X431.8Y-58.42
X433.07Y-43.18
X433.07Y-49.53
X435.61Y-46.99
X436.88Y-125.73
X436.88Y-133.35
X438.15Y-53.34
X438.15Y-120.65
X438.15Y-138.43
X440.69Y-90.17
X440.69Y-93.98
X440.69Y-102.87
X441.96Y-52.07
X441.96Y-107.95
X441.96Y-119.38
X441.96Y-129.54
X443.23Y-109.22
X443.23Y-114.3
X444.5Y-116.84
X444.5Y-125.73
X444.5Y-133.35
X447.04Y-110.49
X447.04Y-118.11
X447.04Y-124.46
X448.31Y-49.53
X448.31Y-102.87
X448.31Y-137.16
X449.58Y-48.26
X450.85Y-90.17
X450.85Y-99.06
X450.85Y-102.87
X453.39Y-95.25
X453.39Y-129.54
X454.66Y-49.53
X454.66Y-54.61
X454.66Y-118.11
X455.93Y-55.88
X455.93Y-101.6
X455.93Y-106.68
X457.2Y-46.99
X457.2Y-100.33
X457.2Y-106.68
X458.47Y-93.98
X458.47Y-99.06
X458.47Y-106.68
X459.74Y-48.26
X459.74Y-116.84
X459.74Y-128.27
X461.01Y-127.0
X462.28Y-125.73
X463.55Y-124.46
X464.82Y-43.18
X464.82Y-111.76
X471.17Y-49.53
X473.71Y-44.45
X473.71Y-63.5
X474.98Y-66.04
X480.06Y-49.53
X480.06Y-66.04
X481.33Y-49.53
X481.33Y-66.04
X482.695Y-51.746
X482.695Y-53.016
X482.695Y-54.286
X482.695Y-55.556
X483.965Y-51.746
X483.965Y-53.016
X483.965Y-54.286
X483.965Y-55.556
X485.14Y-77.47
X485.235Y-51.746
X485.235Y-53.016
X485.235Y-54.286
X485.235Y-55.556
X486.505Y-51.746
X486.505Y-53.016
X486.505Y-54.286
X486.505Y-55.556
X487.68Y-48.26
X488.95Y-49.53
X490.665Y-50.355
X490.665Y-67.755
X491.49Y-80.01
T3
X495.581Y-151.911
X495.581Y-156.761
T4
X152.4Y-99.06
X195.58Y-99.06
X208.28Y-116.84
X229.87Y-91.44
X236.22Y-101.6
X245.11Y-99.06
X266.7Y-140.97
X269.24Y-99.06
X278.13Y-96.52
X294.64Y-100.33
X360.68Y-102.87
X388.62Y-91.44
X396.24Y-63.5
X396.24Y-77.47
X396.24Y-90.17
X396.24Y-100.33
X419.1Y-114.3
X419.1Y-140.97
X461.01Y-44.45
X463.55Y-44.45
X466.09Y-44.45
X485.14Y-72.39
T5
X349.25Y-50.8
X351.79Y-50.8
X354.33Y-50.8
X356.87Y-50.8
X359.41Y-50.8
X361.95Y-50.8
X488.95Y-85.09
X488.95Y-87.63
X488.95Y-90.17
X488.95Y-92.71
X488.95Y-134.62
X488.95Y-137.16
T2
X497.831Y-150.736G85X498.631Y-150.736
G05
X498.631Y-157.936G85X497.831Y-157.936
G05
T0
M30
