%FSLAX45Y45*%
G04 Gerber Fmt 4.5, Leading zero omitted, Abs format (unit mm)*
G04 Created by KiCad (PCBNEW (5.1.10-1-10_14)) date 2021-11-04 03:33:29*
%MOMM*%
%LPD*%
G01*
G04 APERTURE LIST*
%TA.AperFunction,Profile*%
%ADD10C,0.050000*%
%TD*%
%ADD11C,0.200000*%
%ADD12C,0.300000*%
G04 APERTURE END LIST*
D10*
X50000000Y-15986000D02*
X49784000Y-15986000D01*
X50000000Y-15764000D02*
X50000000Y-15986000D01*
X38354000Y-15986000D02*
X49784000Y-15986000D01*
X50000000Y-4000000D02*
X50000000Y-15764000D01*
X5000000Y-6000000D02*
X5000000Y-4000000D01*
X35000000Y-4000000D02*
X50000000Y-4000000D01*
X5000000Y-16000000D02*
X5000000Y-6000000D01*
X38354000Y-15986000D02*
X5000000Y-16000000D01*
X5000000Y-4000000D02*
X35000000Y-4000000D01*
D11*
X7346000Y-10394000D02*
X7386000Y-10434000D01*
X7386000Y-10394000D02*
X7346000Y-10434000D01*
X7346000Y-11283000D02*
X7386000Y-11323000D01*
X7386000Y-11283000D02*
X7346000Y-11323000D01*
X7346000Y-12045000D02*
X7386000Y-12085000D01*
X7386000Y-12045000D02*
X7346000Y-12085000D01*
X7473000Y-9505000D02*
X7513000Y-9545000D01*
X7513000Y-9505000D02*
X7473000Y-9545000D01*
X7600000Y-8616000D02*
X7640000Y-8656000D01*
X7640000Y-8616000D02*
X7600000Y-8656000D01*
X7600000Y-13188000D02*
X7640000Y-13228000D01*
X7640000Y-13188000D02*
X7600000Y-13228000D01*
X7727000Y-8108000D02*
X7767000Y-8148000D01*
X7767000Y-8108000D02*
X7727000Y-8148000D01*
X7854000Y-8362000D02*
X7894000Y-8402000D01*
X7894000Y-8362000D02*
X7854000Y-8402000D01*
X7854000Y-9124000D02*
X7894000Y-9164000D01*
X7894000Y-9124000D02*
X7854000Y-9164000D01*
X7854000Y-9886000D02*
X7894000Y-9926000D01*
X7894000Y-9886000D02*
X7854000Y-9926000D01*
X7854000Y-10648000D02*
X7894000Y-10688000D01*
X7894000Y-10648000D02*
X7854000Y-10688000D01*
X7854000Y-11537000D02*
X7894000Y-11577000D01*
X7894000Y-11537000D02*
X7854000Y-11577000D01*
X7854000Y-12807000D02*
X7894000Y-12847000D01*
X7894000Y-12807000D02*
X7854000Y-12847000D01*
X8235000Y-7854000D02*
X8275000Y-7894000D01*
X8275000Y-7854000D02*
X8235000Y-7894000D01*
X8616000Y-9124000D02*
X8656000Y-9164000D01*
X8656000Y-9124000D02*
X8616000Y-9164000D01*
X8616000Y-9886000D02*
X8656000Y-9926000D01*
X8656000Y-9886000D02*
X8616000Y-9926000D01*
X8616000Y-10648000D02*
X8656000Y-10688000D01*
X8656000Y-10648000D02*
X8616000Y-10688000D01*
X8616000Y-11410000D02*
X8656000Y-11450000D01*
X8656000Y-11410000D02*
X8616000Y-11450000D01*
X8743000Y-11869750D02*
X8783000Y-11909750D01*
X8783000Y-11869750D02*
X8743000Y-11909750D01*
X8870000Y-9378000D02*
X8910000Y-9418000D01*
X8910000Y-9378000D02*
X8870000Y-9418000D01*
X8870000Y-12299000D02*
X8910000Y-12339000D01*
X8910000Y-12299000D02*
X8870000Y-12339000D01*
X8870000Y-13315000D02*
X8910000Y-13355000D01*
X8910000Y-13315000D02*
X8870000Y-13355000D01*
X8997000Y-10267000D02*
X9037000Y-10307000D01*
X9037000Y-10267000D02*
X8997000Y-10307000D01*
X9124000Y-11156000D02*
X9164000Y-11196000D01*
X9164000Y-11156000D02*
X9124000Y-11196000D01*
X9124000Y-13823000D02*
X9164000Y-13863000D01*
X9164000Y-13823000D02*
X9124000Y-13863000D01*
X9251000Y-12045000D02*
X9291000Y-12085000D01*
X9291000Y-12045000D02*
X9251000Y-12085000D01*
X9251000Y-12553000D02*
X9291000Y-12593000D01*
X9291000Y-12553000D02*
X9251000Y-12593000D01*
X9378000Y-12299000D02*
X9418000Y-12339000D01*
X9418000Y-12299000D02*
X9378000Y-12339000D01*
X9378000Y-13315000D02*
X9418000Y-13355000D01*
X9418000Y-13315000D02*
X9378000Y-13355000D01*
X9505000Y-12172000D02*
X9545000Y-12212000D01*
X9545000Y-12172000D02*
X9505000Y-12212000D01*
X9505000Y-13823000D02*
X9545000Y-13863000D01*
X9545000Y-13823000D02*
X9505000Y-13863000D01*
X9632000Y-12045000D02*
X9672000Y-12085000D01*
X9672000Y-12045000D02*
X9632000Y-12085000D01*
X10140000Y-12553000D02*
X10180000Y-12593000D01*
X10180000Y-12553000D02*
X10140000Y-12593000D01*
X10140000Y-13315000D02*
X10180000Y-13355000D01*
X10180000Y-13315000D02*
X10140000Y-13355000D01*
X10267000Y-12045000D02*
X10307000Y-12085000D01*
X10307000Y-12045000D02*
X10267000Y-12085000D01*
X10267000Y-13823000D02*
X10307000Y-13863000D01*
X10307000Y-13823000D02*
X10267000Y-13863000D01*
X10648000Y-12934000D02*
X10688000Y-12974000D01*
X10688000Y-12934000D02*
X10648000Y-12974000D01*
X10775000Y-13950000D02*
X10815000Y-13990000D01*
X10815000Y-13950000D02*
X10775000Y-13990000D01*
X10902000Y-12553000D02*
X10942000Y-12593000D01*
X10942000Y-12553000D02*
X10902000Y-12593000D01*
X10902000Y-13315000D02*
X10942000Y-13355000D01*
X10942000Y-13315000D02*
X10902000Y-13355000D01*
X11029000Y-12045000D02*
X11069000Y-12085000D01*
X11069000Y-12045000D02*
X11029000Y-12085000D01*
X11029000Y-13823000D02*
X11069000Y-13863000D01*
X11069000Y-13823000D02*
X11029000Y-13863000D01*
X11664000Y-12553000D02*
X11704000Y-12593000D01*
X11704000Y-12553000D02*
X11664000Y-12593000D01*
X11664000Y-13315000D02*
X11704000Y-13355000D01*
X11704000Y-13315000D02*
X11664000Y-13355000D01*
X11791000Y-12045000D02*
X11831000Y-12085000D01*
X11831000Y-12045000D02*
X11791000Y-12085000D01*
X11791000Y-13823000D02*
X11831000Y-13863000D01*
X11831000Y-13823000D02*
X11791000Y-13863000D01*
X11918000Y-8108000D02*
X11958000Y-8148000D01*
X11958000Y-8108000D02*
X11918000Y-8148000D01*
X11918000Y-8870000D02*
X11958000Y-8910000D01*
X11958000Y-8870000D02*
X11918000Y-8910000D01*
X11918000Y-9632000D02*
X11958000Y-9672000D01*
X11958000Y-9632000D02*
X11918000Y-9672000D01*
X11918000Y-10521000D02*
X11958000Y-10561000D01*
X11958000Y-10521000D02*
X11918000Y-10561000D01*
X12045000Y-7219000D02*
X12085000Y-7259000D01*
X12085000Y-7219000D02*
X12045000Y-7259000D01*
X12045000Y-11664000D02*
X12085000Y-11704000D01*
X12085000Y-11664000D02*
X12045000Y-11704000D01*
X12172000Y-11537000D02*
X12212000Y-11577000D01*
X12212000Y-11537000D02*
X12172000Y-11577000D01*
X12426000Y-7473000D02*
X12466000Y-7513000D01*
X12466000Y-7473000D02*
X12426000Y-7513000D01*
X12426000Y-8235000D02*
X12466000Y-8275000D01*
X12466000Y-8235000D02*
X12426000Y-8275000D01*
X12426000Y-8997000D02*
X12466000Y-9037000D01*
X12466000Y-8997000D02*
X12426000Y-9037000D01*
X12426000Y-9759000D02*
X12466000Y-9799000D01*
X12466000Y-9759000D02*
X12426000Y-9799000D01*
X12426000Y-10521000D02*
X12466000Y-10561000D01*
X12466000Y-10521000D02*
X12426000Y-10561000D01*
X12426000Y-11664000D02*
X12466000Y-11704000D01*
X12466000Y-11664000D02*
X12426000Y-11704000D01*
X12426000Y-12553000D02*
X12466000Y-12593000D01*
X12466000Y-12553000D02*
X12426000Y-12593000D01*
X12426000Y-13315000D02*
X12466000Y-13355000D01*
X12466000Y-13315000D02*
X12426000Y-13355000D01*
X12553000Y-12045000D02*
X12593000Y-12085000D01*
X12593000Y-12045000D02*
X12553000Y-12085000D01*
X12553000Y-13823000D02*
X12593000Y-13863000D01*
X12593000Y-13823000D02*
X12553000Y-13863000D01*
X12807000Y-10013000D02*
X12847000Y-10053000D01*
X12847000Y-10013000D02*
X12807000Y-10053000D01*
X12807000Y-10013000D02*
X12847000Y-10053000D01*
X12847000Y-10013000D02*
X12807000Y-10053000D01*
X12934000Y-5949000D02*
X12974000Y-5989000D01*
X12974000Y-5949000D02*
X12934000Y-5989000D01*
X12934000Y-6584000D02*
X12974000Y-6624000D01*
X12974000Y-6584000D02*
X12934000Y-6624000D01*
X13188000Y-7600000D02*
X13228000Y-7640000D01*
X13228000Y-7600000D02*
X13188000Y-7640000D01*
X13188000Y-8362000D02*
X13228000Y-8402000D01*
X13228000Y-8362000D02*
X13188000Y-8402000D01*
X13188000Y-9124000D02*
X13228000Y-9164000D01*
X13228000Y-9124000D02*
X13188000Y-9164000D01*
X13188000Y-9886000D02*
X13228000Y-9926000D01*
X13228000Y-9886000D02*
X13188000Y-9926000D01*
X13188000Y-10648000D02*
X13228000Y-10688000D01*
X13228000Y-10648000D02*
X13188000Y-10688000D01*
X13188000Y-12553000D02*
X13228000Y-12593000D01*
X13228000Y-12553000D02*
X13188000Y-12593000D01*
X13315000Y-7346000D02*
X13355000Y-7386000D01*
X13355000Y-7346000D02*
X13315000Y-7386000D01*
X13315000Y-11156000D02*
X13355000Y-11196000D01*
X13355000Y-11156000D02*
X13315000Y-11196000D01*
X13315000Y-12045000D02*
X13355000Y-12085000D01*
X13355000Y-12045000D02*
X13315000Y-12085000D01*
X13439170Y-11997195D02*
X13479170Y-12037195D01*
X13479170Y-11997195D02*
X13439170Y-12037195D01*
X13442000Y-11029000D02*
X13482000Y-11069000D01*
X13482000Y-11029000D02*
X13442000Y-11069000D01*
X13569000Y-10648000D02*
X13609000Y-10688000D01*
X13609000Y-10648000D02*
X13569000Y-10688000D01*
X13569000Y-11283000D02*
X13609000Y-11323000D01*
X13609000Y-11283000D02*
X13569000Y-11323000D01*
X13696000Y-6838000D02*
X13736000Y-6878000D01*
X13736000Y-6838000D02*
X13696000Y-6878000D01*
X13696000Y-8235000D02*
X13736000Y-8275000D01*
X13736000Y-8235000D02*
X13696000Y-8275000D01*
X13696000Y-8997000D02*
X13736000Y-9037000D01*
X13736000Y-8997000D02*
X13696000Y-9037000D01*
X13696000Y-9759000D02*
X13736000Y-9799000D01*
X13736000Y-9759000D02*
X13696000Y-9799000D01*
X13696000Y-10140000D02*
X13736000Y-10180000D01*
X13736000Y-10140000D02*
X13696000Y-10180000D01*
X13696000Y-12934000D02*
X13736000Y-12974000D01*
X13736000Y-12934000D02*
X13696000Y-12974000D01*
X13823000Y-10013000D02*
X13863000Y-10053000D01*
X13863000Y-10013000D02*
X13823000Y-10053000D01*
X13950000Y-6457000D02*
X13990000Y-6497000D01*
X13990000Y-6457000D02*
X13950000Y-6497000D01*
X13950000Y-7219000D02*
X13990000Y-7259000D01*
X13990000Y-7219000D02*
X13950000Y-7259000D01*
X13950000Y-7600000D02*
X13990000Y-7640000D01*
X13990000Y-7600000D02*
X13950000Y-7640000D01*
X13950000Y-12553000D02*
X13990000Y-12593000D01*
X13990000Y-12553000D02*
X13950000Y-12593000D01*
X14077000Y-5949000D02*
X14117000Y-5989000D01*
X14117000Y-5949000D02*
X14077000Y-5989000D01*
X14077000Y-12172000D02*
X14117000Y-12212000D01*
X14117000Y-12172000D02*
X14077000Y-12212000D01*
X14204000Y-7600000D02*
X14244000Y-7640000D01*
X14244000Y-7600000D02*
X14204000Y-7640000D01*
X14458000Y-7727000D02*
X14498000Y-7767000D01*
X14498000Y-7727000D02*
X14458000Y-7767000D01*
X14712000Y-6457000D02*
X14752000Y-6497000D01*
X14752000Y-6457000D02*
X14712000Y-6497000D01*
X14712000Y-7219000D02*
X14752000Y-7259000D01*
X14752000Y-7219000D02*
X14712000Y-7259000D01*
X14712000Y-7854000D02*
X14752000Y-7894000D01*
X14752000Y-7854000D02*
X14712000Y-7894000D01*
X14712000Y-12553000D02*
X14752000Y-12593000D01*
X14752000Y-12553000D02*
X14712000Y-12593000D01*
X14839000Y-5949000D02*
X14879000Y-5989000D01*
X14879000Y-5949000D02*
X14839000Y-5989000D01*
X14839000Y-7727000D02*
X14879000Y-7767000D01*
X14879000Y-7727000D02*
X14839000Y-7767000D01*
X14839000Y-12172000D02*
X14879000Y-12212000D01*
X14879000Y-12172000D02*
X14839000Y-12212000D01*
X14839000Y-12680000D02*
X14879000Y-12720000D01*
X14879000Y-12680000D02*
X14839000Y-12720000D01*
X14839000Y-12934000D02*
X14879000Y-12974000D01*
X14879000Y-12934000D02*
X14839000Y-12974000D01*
X15093000Y-12172000D02*
X15133000Y-12212000D01*
X15133000Y-12172000D02*
X15093000Y-12212000D01*
X15093000Y-12299000D02*
X15133000Y-12339000D01*
X15133000Y-12299000D02*
X15093000Y-12339000D01*
X15220000Y-11664000D02*
X15260000Y-11704000D01*
X15260000Y-11664000D02*
X15220000Y-11704000D01*
X15220000Y-12934000D02*
X15260000Y-12974000D01*
X15260000Y-12934000D02*
X15220000Y-12974000D01*
X15474000Y-6457000D02*
X15514000Y-6497000D01*
X15514000Y-6457000D02*
X15474000Y-6497000D01*
X15474000Y-7219000D02*
X15514000Y-7259000D01*
X15514000Y-7219000D02*
X15474000Y-7259000D01*
X15474000Y-11664000D02*
X15514000Y-11704000D01*
X15514000Y-11664000D02*
X15474000Y-11704000D01*
X15474000Y-13315000D02*
X15514000Y-13355000D01*
X15514000Y-13315000D02*
X15474000Y-13355000D01*
X15601000Y-5949000D02*
X15641000Y-5989000D01*
X15641000Y-5949000D02*
X15601000Y-5989000D01*
X15601000Y-7727000D02*
X15641000Y-7767000D01*
X15641000Y-7727000D02*
X15601000Y-7767000D01*
X15601000Y-12172000D02*
X15641000Y-12212000D01*
X15641000Y-12172000D02*
X15601000Y-12212000D01*
X15601000Y-12426000D02*
X15641000Y-12466000D01*
X15641000Y-12426000D02*
X15601000Y-12466000D01*
X15601000Y-12680000D02*
X15641000Y-12720000D01*
X15641000Y-12680000D02*
X15601000Y-12720000D01*
X15604015Y-13445015D02*
X15644015Y-13485015D01*
X15644015Y-13445015D02*
X15604015Y-13485015D01*
X15855000Y-12299000D02*
X15895000Y-12339000D01*
X15895000Y-12299000D02*
X15855000Y-12339000D01*
X16109000Y-12934000D02*
X16149000Y-12974000D01*
X16149000Y-12934000D02*
X16109000Y-12974000D01*
X16236000Y-6457000D02*
X16276000Y-6497000D01*
X16276000Y-6457000D02*
X16236000Y-6497000D01*
X16236000Y-7219000D02*
X16276000Y-7259000D01*
X16276000Y-7219000D02*
X16236000Y-7259000D01*
X16363000Y-5949000D02*
X16403000Y-5989000D01*
X16403000Y-5949000D02*
X16363000Y-5989000D01*
X16363000Y-7727000D02*
X16403000Y-7767000D01*
X16403000Y-7727000D02*
X16363000Y-7767000D01*
X16363000Y-13442000D02*
X16403000Y-13482000D01*
X16403000Y-13442000D02*
X16363000Y-13482000D01*
X16998000Y-6457000D02*
X17038000Y-6497000D01*
X17038000Y-6457000D02*
X16998000Y-6497000D01*
X16998000Y-7219000D02*
X17038000Y-7259000D01*
X17038000Y-7219000D02*
X16998000Y-7259000D01*
X16998000Y-12553000D02*
X17038000Y-12593000D01*
X17038000Y-12553000D02*
X16998000Y-12593000D01*
X16998000Y-13315000D02*
X17038000Y-13355000D01*
X17038000Y-13315000D02*
X16998000Y-13355000D01*
X17125000Y-5949000D02*
X17165000Y-5989000D01*
X17165000Y-5949000D02*
X17125000Y-5989000D01*
X17125000Y-7727000D02*
X17165000Y-7767000D01*
X17165000Y-7727000D02*
X17125000Y-7767000D01*
X17125000Y-12045000D02*
X17165000Y-12085000D01*
X17165000Y-12045000D02*
X17125000Y-12085000D01*
X17125000Y-13442000D02*
X17165000Y-13482000D01*
X17165000Y-13442000D02*
X17125000Y-13482000D01*
X17379000Y-11283000D02*
X17419000Y-11323000D01*
X17419000Y-11283000D02*
X17379000Y-11323000D01*
X17379000Y-13569000D02*
X17419000Y-13609000D01*
X17419000Y-13569000D02*
X17379000Y-13609000D01*
X17506000Y-6838000D02*
X17546000Y-6878000D01*
X17546000Y-6838000D02*
X17506000Y-6878000D01*
X17506000Y-7854000D02*
X17546000Y-7894000D01*
X17546000Y-7854000D02*
X17506000Y-7894000D01*
X17506000Y-11156000D02*
X17546000Y-11196000D01*
X17546000Y-11156000D02*
X17506000Y-11196000D01*
X17506000Y-13696000D02*
X17546000Y-13736000D01*
X17546000Y-13696000D02*
X17506000Y-13736000D01*
X17760000Y-6457000D02*
X17800000Y-6497000D01*
X17800000Y-6457000D02*
X17760000Y-6497000D01*
X17760000Y-7219000D02*
X17800000Y-7259000D01*
X17800000Y-7219000D02*
X17760000Y-7259000D01*
X17760000Y-12553000D02*
X17800000Y-12593000D01*
X17800000Y-12553000D02*
X17760000Y-12593000D01*
X17760000Y-13315000D02*
X17800000Y-13355000D01*
X17800000Y-13315000D02*
X17760000Y-13355000D01*
X17887000Y-5949000D02*
X17927000Y-5989000D01*
X17927000Y-5949000D02*
X17887000Y-5989000D01*
X17887000Y-7727000D02*
X17927000Y-7767000D01*
X17927000Y-7727000D02*
X17887000Y-7767000D01*
X17887000Y-12045000D02*
X17927000Y-12085000D01*
X17927000Y-12045000D02*
X17887000Y-12085000D01*
X17887000Y-13569000D02*
X17927000Y-13609000D01*
X17927000Y-13569000D02*
X17887000Y-13609000D01*
X18014000Y-11410000D02*
X18054000Y-11450000D01*
X18054000Y-11410000D02*
X18014000Y-11450000D01*
X18014000Y-13188000D02*
X18054000Y-13228000D01*
X18054000Y-13188000D02*
X18014000Y-13228000D01*
X18522000Y-6457000D02*
X18562000Y-6497000D01*
X18562000Y-6457000D02*
X18522000Y-6497000D01*
X18522000Y-7219000D02*
X18562000Y-7259000D01*
X18562000Y-7219000D02*
X18522000Y-7259000D01*
X18522000Y-12553000D02*
X18562000Y-12593000D01*
X18562000Y-12553000D02*
X18522000Y-12593000D01*
X18522000Y-13315000D02*
X18562000Y-13355000D01*
X18562000Y-13315000D02*
X18522000Y-13355000D01*
X18649000Y-5949000D02*
X18689000Y-5989000D01*
X18689000Y-5949000D02*
X18649000Y-5989000D01*
X18649000Y-7727000D02*
X18689000Y-7767000D01*
X18689000Y-7727000D02*
X18649000Y-7767000D01*
X18649000Y-12045000D02*
X18689000Y-12085000D01*
X18689000Y-12045000D02*
X18649000Y-12085000D01*
X18649000Y-13696000D02*
X18689000Y-13736000D01*
X18689000Y-13696000D02*
X18649000Y-13736000D01*
X18776000Y-11537000D02*
X18816000Y-11577000D01*
X18816000Y-11537000D02*
X18776000Y-11577000D01*
X18776000Y-13188000D02*
X18816000Y-13228000D01*
X18816000Y-13188000D02*
X18776000Y-13228000D01*
X19284000Y-6457000D02*
X19324000Y-6497000D01*
X19324000Y-6457000D02*
X19284000Y-6497000D01*
X19284000Y-7219000D02*
X19324000Y-7259000D01*
X19324000Y-7219000D02*
X19284000Y-7259000D01*
X19284000Y-12553000D02*
X19324000Y-12593000D01*
X19324000Y-12553000D02*
X19284000Y-12593000D01*
X19284000Y-13315000D02*
X19324000Y-13355000D01*
X19324000Y-13315000D02*
X19284000Y-13355000D01*
X19411000Y-5949000D02*
X19451000Y-5989000D01*
X19451000Y-5949000D02*
X19411000Y-5989000D01*
X19411000Y-7727000D02*
X19451000Y-7767000D01*
X19451000Y-7727000D02*
X19411000Y-7767000D01*
X19411000Y-12045000D02*
X19451000Y-12085000D01*
X19451000Y-12045000D02*
X19411000Y-12085000D01*
X19411000Y-13823000D02*
X19451000Y-13863000D01*
X19451000Y-13823000D02*
X19411000Y-13863000D01*
X19538000Y-11918000D02*
X19578000Y-11958000D01*
X19578000Y-11918000D02*
X19538000Y-11958000D01*
X19538000Y-13188000D02*
X19578000Y-13228000D01*
X19578000Y-13188000D02*
X19538000Y-13228000D01*
X19792000Y-11918000D02*
X19832000Y-11958000D01*
X19832000Y-11918000D02*
X19792000Y-11958000D01*
X19792000Y-12934000D02*
X19832000Y-12974000D01*
X19832000Y-12934000D02*
X19792000Y-12974000D01*
X20046000Y-6457000D02*
X20086000Y-6497000D01*
X20086000Y-6457000D02*
X20046000Y-6497000D01*
X20046000Y-7219000D02*
X20086000Y-7259000D01*
X20086000Y-7219000D02*
X20046000Y-7259000D01*
X20046000Y-12553000D02*
X20086000Y-12593000D01*
X20086000Y-12553000D02*
X20046000Y-12593000D01*
X20046000Y-13315000D02*
X20086000Y-13355000D01*
X20086000Y-13315000D02*
X20046000Y-13355000D01*
X20173000Y-5949000D02*
X20213000Y-5989000D01*
X20213000Y-5949000D02*
X20173000Y-5989000D01*
X20173000Y-7727000D02*
X20213000Y-7767000D01*
X20213000Y-7727000D02*
X20173000Y-7767000D01*
X20173000Y-12045000D02*
X20213000Y-12085000D01*
X20213000Y-12045000D02*
X20173000Y-12085000D01*
X20173000Y-13823000D02*
X20213000Y-13863000D01*
X20213000Y-13823000D02*
X20173000Y-13863000D01*
X20808000Y-6457000D02*
X20848000Y-6497000D01*
X20848000Y-6457000D02*
X20808000Y-6497000D01*
X20808000Y-7219000D02*
X20848000Y-7259000D01*
X20848000Y-7219000D02*
X20808000Y-7259000D01*
X20808000Y-12553000D02*
X20848000Y-12593000D01*
X20848000Y-12553000D02*
X20808000Y-12593000D01*
X20808000Y-13315000D02*
X20848000Y-13355000D01*
X20848000Y-13315000D02*
X20808000Y-13355000D01*
X20935000Y-5949000D02*
X20975000Y-5989000D01*
X20975000Y-5949000D02*
X20935000Y-5989000D01*
X20935000Y-7727000D02*
X20975000Y-7767000D01*
X20975000Y-7727000D02*
X20935000Y-7767000D01*
X20935000Y-12045000D02*
X20975000Y-12085000D01*
X20975000Y-12045000D02*
X20935000Y-12085000D01*
X20935000Y-13823000D02*
X20975000Y-13863000D01*
X20975000Y-13823000D02*
X20935000Y-13863000D01*
X21316000Y-6838000D02*
X21356000Y-6878000D01*
X21356000Y-6838000D02*
X21316000Y-6878000D01*
X21316000Y-7854000D02*
X21356000Y-7894000D01*
X21356000Y-7854000D02*
X21316000Y-7894000D01*
X21570000Y-6457000D02*
X21610000Y-6497000D01*
X21610000Y-6457000D02*
X21570000Y-6497000D01*
X21570000Y-7219000D02*
X21610000Y-7259000D01*
X21610000Y-7219000D02*
X21570000Y-7259000D01*
X21570000Y-11791000D02*
X21610000Y-11831000D01*
X21610000Y-11791000D02*
X21570000Y-11831000D01*
X21570000Y-12553000D02*
X21610000Y-12593000D01*
X21610000Y-12553000D02*
X21570000Y-12593000D01*
X21570000Y-13315000D02*
X21610000Y-13355000D01*
X21610000Y-13315000D02*
X21570000Y-13355000D01*
X21697000Y-5949000D02*
X21737000Y-5989000D01*
X21737000Y-5949000D02*
X21697000Y-5989000D01*
X21697000Y-7727000D02*
X21737000Y-7767000D01*
X21737000Y-7727000D02*
X21697000Y-7767000D01*
X21697000Y-12045000D02*
X21737000Y-12085000D01*
X21737000Y-12045000D02*
X21697000Y-12085000D01*
X21697000Y-13823000D02*
X21737000Y-13863000D01*
X21737000Y-13823000D02*
X21697000Y-13863000D01*
X21824000Y-9124000D02*
X21864000Y-9164000D01*
X21864000Y-9124000D02*
X21824000Y-9164000D01*
X21951000Y-5822000D02*
X21991000Y-5862000D01*
X21991000Y-5822000D02*
X21951000Y-5862000D01*
X21951000Y-8362000D02*
X21991000Y-8402000D01*
X21991000Y-8362000D02*
X21951000Y-8402000D01*
X22078000Y-8870000D02*
X22118000Y-8910000D01*
X22118000Y-8870000D02*
X22078000Y-8910000D01*
X22078000Y-9124000D02*
X22118000Y-9164000D01*
X22118000Y-9124000D02*
X22078000Y-9164000D01*
X22078000Y-11791000D02*
X22118000Y-11831000D01*
X22118000Y-11791000D02*
X22078000Y-11831000D01*
X22332000Y-6457000D02*
X22372000Y-6497000D01*
X22372000Y-6457000D02*
X22332000Y-6497000D01*
X22332000Y-7219000D02*
X22372000Y-7259000D01*
X22372000Y-7219000D02*
X22332000Y-7259000D01*
X22332000Y-12553000D02*
X22372000Y-12593000D01*
X22372000Y-12553000D02*
X22332000Y-12593000D01*
X22332000Y-13315000D02*
X22372000Y-13355000D01*
X22372000Y-13315000D02*
X22332000Y-13355000D01*
X22459000Y-5949000D02*
X22499000Y-5989000D01*
X22499000Y-5949000D02*
X22459000Y-5989000D01*
X22459000Y-7727000D02*
X22499000Y-7767000D01*
X22499000Y-7727000D02*
X22459000Y-7767000D01*
X22459000Y-12045000D02*
X22499000Y-12085000D01*
X22499000Y-12045000D02*
X22459000Y-12085000D01*
X22459000Y-13823000D02*
X22499000Y-13863000D01*
X22499000Y-13823000D02*
X22459000Y-13863000D01*
X22586000Y-8616000D02*
X22626000Y-8656000D01*
X22626000Y-8616000D02*
X22586000Y-8656000D01*
X22586000Y-11791000D02*
X22626000Y-11831000D01*
X22626000Y-11791000D02*
X22586000Y-11831000D01*
X22840000Y-9886000D02*
X22880000Y-9926000D01*
X22880000Y-9886000D02*
X22840000Y-9926000D01*
X22967000Y-9759000D02*
X23007000Y-9799000D01*
X23007000Y-9759000D02*
X22967000Y-9799000D01*
X23094000Y-6457000D02*
X23134000Y-6497000D01*
X23134000Y-6457000D02*
X23094000Y-6497000D01*
X23094000Y-7219000D02*
X23134000Y-7259000D01*
X23134000Y-7219000D02*
X23094000Y-7259000D01*
X23094000Y-9886000D02*
X23134000Y-9926000D01*
X23134000Y-9886000D02*
X23094000Y-9926000D01*
X23094000Y-11791000D02*
X23134000Y-11831000D01*
X23134000Y-11791000D02*
X23094000Y-11831000D01*
X23094000Y-12553000D02*
X23134000Y-12593000D01*
X23134000Y-12553000D02*
X23094000Y-12593000D01*
X23094000Y-13315000D02*
X23134000Y-13355000D01*
X23134000Y-13315000D02*
X23094000Y-13355000D01*
X23221000Y-5949000D02*
X23261000Y-5989000D01*
X23261000Y-5949000D02*
X23221000Y-5989000D01*
X23221000Y-7727000D02*
X23261000Y-7767000D01*
X23261000Y-7727000D02*
X23221000Y-7767000D01*
X23221000Y-12045000D02*
X23261000Y-12085000D01*
X23261000Y-12045000D02*
X23221000Y-12085000D01*
X23221000Y-13823000D02*
X23261000Y-13863000D01*
X23261000Y-13823000D02*
X23221000Y-13863000D01*
X23602000Y-11791000D02*
X23642000Y-11831000D01*
X23642000Y-11791000D02*
X23602000Y-11831000D01*
X23729000Y-10648000D02*
X23769000Y-10688000D01*
X23769000Y-10648000D02*
X23729000Y-10688000D01*
X23729000Y-10775000D02*
X23769000Y-10815000D01*
X23769000Y-10775000D02*
X23729000Y-10815000D01*
X23729000Y-10902000D02*
X23769000Y-10942000D01*
X23769000Y-10902000D02*
X23729000Y-10942000D01*
X23856000Y-6457000D02*
X23896000Y-6497000D01*
X23896000Y-6457000D02*
X23856000Y-6497000D01*
X23856000Y-7219000D02*
X23896000Y-7259000D01*
X23896000Y-7219000D02*
X23856000Y-7259000D01*
X23856000Y-12553000D02*
X23896000Y-12593000D01*
X23896000Y-12553000D02*
X23856000Y-12593000D01*
X23856000Y-13315000D02*
X23896000Y-13355000D01*
X23896000Y-13315000D02*
X23856000Y-13355000D01*
X23983000Y-5949000D02*
X24023000Y-5989000D01*
X24023000Y-5949000D02*
X23983000Y-5989000D01*
X23983000Y-7727000D02*
X24023000Y-7767000D01*
X24023000Y-7727000D02*
X23983000Y-7767000D01*
X23983000Y-12045000D02*
X24023000Y-12085000D01*
X24023000Y-12045000D02*
X23983000Y-12085000D01*
X23983000Y-12680000D02*
X24023000Y-12720000D01*
X24023000Y-12680000D02*
X23983000Y-12720000D01*
X23983000Y-13823000D02*
X24023000Y-13863000D01*
X24023000Y-13823000D02*
X23983000Y-13863000D01*
X24364000Y-11918000D02*
X24404000Y-11958000D01*
X24404000Y-11918000D02*
X24364000Y-11958000D01*
X24364000Y-12934000D02*
X24404000Y-12974000D01*
X24404000Y-12934000D02*
X24364000Y-12974000D01*
X24618000Y-6457000D02*
X24658000Y-6497000D01*
X24658000Y-6457000D02*
X24618000Y-6497000D01*
X24618000Y-7219000D02*
X24658000Y-7259000D01*
X24658000Y-7219000D02*
X24618000Y-7259000D01*
X24618000Y-11918000D02*
X24658000Y-11958000D01*
X24658000Y-11918000D02*
X24618000Y-11958000D01*
X24618000Y-12553000D02*
X24658000Y-12593000D01*
X24658000Y-12553000D02*
X24618000Y-12593000D01*
X24618000Y-13315000D02*
X24658000Y-13355000D01*
X24658000Y-13315000D02*
X24618000Y-13355000D01*
X24745000Y-5949000D02*
X24785000Y-5989000D01*
X24785000Y-5949000D02*
X24745000Y-5989000D01*
X24745000Y-7727000D02*
X24785000Y-7767000D01*
X24785000Y-7727000D02*
X24745000Y-7767000D01*
X24745000Y-12045000D02*
X24785000Y-12085000D01*
X24785000Y-12045000D02*
X24745000Y-12085000D01*
X24745000Y-13823000D02*
X24785000Y-13863000D01*
X24785000Y-13823000D02*
X24745000Y-13863000D01*
X25126000Y-6838000D02*
X25166000Y-6878000D01*
X25166000Y-6838000D02*
X25126000Y-6878000D01*
X25126000Y-7854000D02*
X25166000Y-7894000D01*
X25166000Y-7854000D02*
X25126000Y-7894000D01*
X25380000Y-6457000D02*
X25420000Y-6497000D01*
X25420000Y-6457000D02*
X25380000Y-6497000D01*
X25380000Y-7219000D02*
X25420000Y-7259000D01*
X25420000Y-7219000D02*
X25380000Y-7259000D01*
X25380000Y-12553000D02*
X25420000Y-12593000D01*
X25420000Y-12553000D02*
X25380000Y-12593000D01*
X25380000Y-13315000D02*
X25420000Y-13355000D01*
X25420000Y-13315000D02*
X25380000Y-13355000D01*
X25507000Y-5949000D02*
X25547000Y-5989000D01*
X25547000Y-5949000D02*
X25507000Y-5989000D01*
X25507000Y-7727000D02*
X25547000Y-7767000D01*
X25547000Y-7727000D02*
X25507000Y-7767000D01*
X25507000Y-12045000D02*
X25547000Y-12085000D01*
X25547000Y-12045000D02*
X25507000Y-12085000D01*
X25507000Y-13823000D02*
X25547000Y-13863000D01*
X25547000Y-13823000D02*
X25507000Y-13863000D01*
X26142000Y-6457000D02*
X26182000Y-6497000D01*
X26182000Y-6457000D02*
X26142000Y-6497000D01*
X26142000Y-7219000D02*
X26182000Y-7259000D01*
X26182000Y-7219000D02*
X26142000Y-7259000D01*
X26142000Y-12553000D02*
X26182000Y-12593000D01*
X26182000Y-12553000D02*
X26142000Y-12593000D01*
X26142000Y-13315000D02*
X26182000Y-13355000D01*
X26182000Y-13315000D02*
X26142000Y-13355000D01*
X26269000Y-5949000D02*
X26309000Y-5989000D01*
X26309000Y-5949000D02*
X26269000Y-5989000D01*
X26269000Y-7727000D02*
X26309000Y-7767000D01*
X26309000Y-7727000D02*
X26269000Y-7767000D01*
X26269000Y-12045000D02*
X26309000Y-12085000D01*
X26309000Y-12045000D02*
X26269000Y-12085000D01*
X26269000Y-13823000D02*
X26309000Y-13863000D01*
X26309000Y-13823000D02*
X26269000Y-13863000D01*
X26650000Y-6838000D02*
X26690000Y-6878000D01*
X26690000Y-6838000D02*
X26650000Y-6878000D01*
X26650000Y-7981000D02*
X26690000Y-8021000D01*
X26690000Y-7981000D02*
X26650000Y-8021000D01*
X26904000Y-6457000D02*
X26944000Y-6497000D01*
X26944000Y-6457000D02*
X26904000Y-6497000D01*
X26904000Y-7219000D02*
X26944000Y-7259000D01*
X26944000Y-7219000D02*
X26904000Y-7259000D01*
X26904000Y-12553000D02*
X26944000Y-12593000D01*
X26944000Y-12553000D02*
X26904000Y-12593000D01*
X26904000Y-13315000D02*
X26944000Y-13355000D01*
X26944000Y-13315000D02*
X26904000Y-13355000D01*
X27031000Y-5949000D02*
X27071000Y-5989000D01*
X27071000Y-5949000D02*
X27031000Y-5989000D01*
X27031000Y-7727000D02*
X27071000Y-7767000D01*
X27071000Y-7727000D02*
X27031000Y-7767000D01*
X27031000Y-12045000D02*
X27071000Y-12085000D01*
X27071000Y-12045000D02*
X27031000Y-12085000D01*
X27031000Y-13823000D02*
X27071000Y-13863000D01*
X27071000Y-13823000D02*
X27031000Y-13863000D01*
X27539000Y-6203000D02*
X27579000Y-6243000D01*
X27579000Y-6203000D02*
X27539000Y-6243000D01*
X27666000Y-6457000D02*
X27706000Y-6497000D01*
X27706000Y-6457000D02*
X27666000Y-6497000D01*
X27666000Y-7219000D02*
X27706000Y-7259000D01*
X27706000Y-7219000D02*
X27666000Y-7259000D01*
X27666000Y-12553000D02*
X27706000Y-12593000D01*
X27706000Y-12553000D02*
X27666000Y-12593000D01*
X27666000Y-13315000D02*
X27706000Y-13355000D01*
X27706000Y-13315000D02*
X27666000Y-13355000D01*
X27793000Y-5949000D02*
X27833000Y-5989000D01*
X27833000Y-5949000D02*
X27793000Y-5989000D01*
X27793000Y-7727000D02*
X27833000Y-7767000D01*
X27833000Y-7727000D02*
X27793000Y-7767000D01*
X27793000Y-7981000D02*
X27833000Y-8021000D01*
X27833000Y-7981000D02*
X27793000Y-8021000D01*
X27793000Y-12045000D02*
X27833000Y-12085000D01*
X27833000Y-12045000D02*
X27793000Y-12085000D01*
X27793000Y-13823000D02*
X27833000Y-13863000D01*
X27833000Y-13823000D02*
X27793000Y-13863000D01*
X28174000Y-11918000D02*
X28214000Y-11958000D01*
X28214000Y-11918000D02*
X28174000Y-11958000D01*
X28174000Y-12934000D02*
X28214000Y-12974000D01*
X28214000Y-12934000D02*
X28174000Y-12974000D01*
X28301000Y-7854000D02*
X28341000Y-7894000D01*
X28341000Y-7854000D02*
X28301000Y-7894000D01*
X28428000Y-6457000D02*
X28468000Y-6497000D01*
X28468000Y-6457000D02*
X28428000Y-6497000D01*
X28428000Y-7219000D02*
X28468000Y-7259000D01*
X28468000Y-7219000D02*
X28428000Y-7259000D01*
X28555000Y-5949000D02*
X28595000Y-5989000D01*
X28595000Y-5949000D02*
X28555000Y-5989000D01*
X28555000Y-7727000D02*
X28595000Y-7767000D01*
X28595000Y-7727000D02*
X28555000Y-7767000D01*
X28809000Y-6076000D02*
X28849000Y-6116000D01*
X28849000Y-6076000D02*
X28809000Y-6116000D01*
X28809000Y-7854000D02*
X28849000Y-7894000D01*
X28849000Y-7854000D02*
X28809000Y-7894000D01*
X29063000Y-7981000D02*
X29103000Y-8021000D01*
X29103000Y-7981000D02*
X29063000Y-8021000D01*
X29190000Y-6457000D02*
X29230000Y-6497000D01*
X29230000Y-6457000D02*
X29190000Y-6497000D01*
X29190000Y-7219000D02*
X29230000Y-7259000D01*
X29230000Y-7219000D02*
X29190000Y-7259000D01*
X29317000Y-5949000D02*
X29357000Y-5989000D01*
X29357000Y-5949000D02*
X29317000Y-5989000D01*
X29317000Y-7727000D02*
X29357000Y-7767000D01*
X29357000Y-7727000D02*
X29317000Y-7767000D01*
X29444000Y-6330000D02*
X29484000Y-6370000D01*
X29484000Y-6330000D02*
X29444000Y-6370000D01*
X29444000Y-7854000D02*
X29484000Y-7894000D01*
X29484000Y-7854000D02*
X29444000Y-7894000D01*
X29507500Y-10584500D02*
X29547500Y-10624500D01*
X29547500Y-10584500D02*
X29507500Y-10624500D01*
X29825000Y-7981000D02*
X29865000Y-8021000D01*
X29865000Y-7981000D02*
X29825000Y-8021000D01*
X29952000Y-6457000D02*
X29992000Y-6497000D01*
X29992000Y-6457000D02*
X29952000Y-6497000D01*
X29952000Y-7219000D02*
X29992000Y-7259000D01*
X29992000Y-7219000D02*
X29952000Y-7259000D01*
X29952000Y-10521000D02*
X29992000Y-10561000D01*
X29992000Y-10521000D02*
X29952000Y-10561000D01*
X30079000Y-5949000D02*
X30119000Y-5989000D01*
X30119000Y-5949000D02*
X30079000Y-5989000D01*
X30079000Y-7727000D02*
X30119000Y-7767000D01*
X30119000Y-7727000D02*
X30079000Y-7767000D01*
X30079000Y-7981000D02*
X30119000Y-8021000D01*
X30119000Y-7981000D02*
X30079000Y-8021000D01*
X30333000Y-9124000D02*
X30373000Y-9164000D01*
X30373000Y-9124000D02*
X30333000Y-9164000D01*
X30460000Y-6838000D02*
X30500000Y-6878000D01*
X30500000Y-6838000D02*
X30460000Y-6878000D01*
X30460000Y-7981000D02*
X30500000Y-8021000D01*
X30500000Y-7981000D02*
X30460000Y-8021000D01*
X30587000Y-9124000D02*
X30627000Y-9164000D01*
X30627000Y-9124000D02*
X30587000Y-9164000D01*
X30714000Y-6457000D02*
X30754000Y-6497000D01*
X30754000Y-6457000D02*
X30714000Y-6497000D01*
X30714000Y-7219000D02*
X30754000Y-7259000D01*
X30754000Y-7219000D02*
X30714000Y-7259000D01*
X30841000Y-5949000D02*
X30881000Y-5989000D01*
X30881000Y-5949000D02*
X30841000Y-5989000D01*
X30841000Y-7727000D02*
X30881000Y-7767000D01*
X30881000Y-7727000D02*
X30841000Y-7767000D01*
X31476000Y-6457000D02*
X31516000Y-6497000D01*
X31516000Y-6457000D02*
X31476000Y-6497000D01*
X31476000Y-7219000D02*
X31516000Y-7259000D01*
X31516000Y-7219000D02*
X31476000Y-7259000D01*
X31476000Y-11156000D02*
X31516000Y-11196000D01*
X31516000Y-11156000D02*
X31476000Y-11196000D01*
X31603000Y-5949000D02*
X31643000Y-5989000D01*
X31643000Y-5949000D02*
X31603000Y-5989000D01*
X31603000Y-7727000D02*
X31643000Y-7767000D01*
X31643000Y-7727000D02*
X31603000Y-7767000D01*
X31730000Y-11410000D02*
X31770000Y-11450000D01*
X31770000Y-11410000D02*
X31730000Y-11450000D01*
X31730000Y-12299000D02*
X31770000Y-12339000D01*
X31770000Y-12299000D02*
X31730000Y-12339000D01*
X31730000Y-13442000D02*
X31770000Y-13482000D01*
X31770000Y-13442000D02*
X31730000Y-13482000D01*
X31857000Y-5441000D02*
X31897000Y-5481000D01*
X31897000Y-5441000D02*
X31857000Y-5481000D01*
X31857000Y-7981000D02*
X31897000Y-8021000D01*
X31897000Y-7981000D02*
X31857000Y-8021000D01*
X31984000Y-11156000D02*
X32024000Y-11196000D01*
X32024000Y-11156000D02*
X31984000Y-11196000D01*
X31984000Y-11664000D02*
X32024000Y-11704000D01*
X32024000Y-11664000D02*
X31984000Y-11704000D01*
X31984000Y-12934000D02*
X32024000Y-12974000D01*
X32024000Y-12934000D02*
X31984000Y-12974000D01*
X32238000Y-6457000D02*
X32278000Y-6497000D01*
X32278000Y-6457000D02*
X32238000Y-6497000D01*
X32238000Y-7219000D02*
X32278000Y-7259000D01*
X32278000Y-7219000D02*
X32238000Y-7259000D01*
X32238000Y-12045000D02*
X32278000Y-12085000D01*
X32278000Y-12045000D02*
X32238000Y-12085000D01*
X32238000Y-12807000D02*
X32278000Y-12847000D01*
X32278000Y-12807000D02*
X32238000Y-12847000D01*
X32238000Y-13188000D02*
X32278000Y-13228000D01*
X32278000Y-13188000D02*
X32238000Y-13228000D01*
X32238000Y-13569000D02*
X32278000Y-13609000D01*
X32278000Y-13569000D02*
X32238000Y-13609000D01*
X32365000Y-5949000D02*
X32405000Y-5989000D01*
X32405000Y-5949000D02*
X32365000Y-5989000D01*
X32365000Y-7727000D02*
X32405000Y-7767000D01*
X32405000Y-7727000D02*
X32365000Y-7767000D01*
X32365000Y-12680000D02*
X32405000Y-12720000D01*
X32405000Y-12680000D02*
X32365000Y-12720000D01*
X32365000Y-13188000D02*
X32405000Y-13228000D01*
X32405000Y-13188000D02*
X32365000Y-13228000D01*
X32492000Y-12680000D02*
X32532000Y-12720000D01*
X32532000Y-12680000D02*
X32492000Y-12720000D01*
X32492000Y-13188000D02*
X32532000Y-13228000D01*
X32532000Y-13188000D02*
X32492000Y-13228000D01*
X33000000Y-6457000D02*
X33040000Y-6497000D01*
X33040000Y-6457000D02*
X33000000Y-6497000D01*
X33000000Y-7219000D02*
X33040000Y-7259000D01*
X33040000Y-7219000D02*
X33000000Y-7259000D01*
X33000000Y-10775000D02*
X33040000Y-10815000D01*
X33040000Y-10775000D02*
X33000000Y-10815000D01*
X33000000Y-11561250D02*
X33040000Y-11601250D01*
X33040000Y-11561250D02*
X33000000Y-11601250D01*
X33000000Y-13061000D02*
X33040000Y-13101000D01*
X33040000Y-13061000D02*
X33000000Y-13101000D01*
X33127000Y-5949000D02*
X33167000Y-5989000D01*
X33167000Y-5949000D02*
X33127000Y-5989000D01*
X33127000Y-7727000D02*
X33167000Y-7767000D01*
X33167000Y-7727000D02*
X33127000Y-7767000D01*
X33508000Y-6838000D02*
X33548000Y-6878000D01*
X33548000Y-6838000D02*
X33508000Y-6878000D01*
X33508000Y-7854000D02*
X33548000Y-7894000D01*
X33548000Y-7854000D02*
X33508000Y-7894000D01*
X33635000Y-12172000D02*
X33675000Y-12212000D01*
X33675000Y-12172000D02*
X33635000Y-12212000D01*
X33635000Y-12553000D02*
X33675000Y-12593000D01*
X33675000Y-12553000D02*
X33635000Y-12593000D01*
X33762000Y-10267000D02*
X33802000Y-10307000D01*
X33802000Y-10267000D02*
X33762000Y-10307000D01*
X33762000Y-12680000D02*
X33802000Y-12720000D01*
X33802000Y-12680000D02*
X33762000Y-12720000D01*
X33889000Y-10140000D02*
X33929000Y-10180000D01*
X33929000Y-10140000D02*
X33889000Y-10180000D01*
X33889000Y-10775000D02*
X33929000Y-10815000D01*
X33929000Y-10775000D02*
X33889000Y-10815000D01*
X33889000Y-12172000D02*
X33929000Y-12212000D01*
X33929000Y-12172000D02*
X33889000Y-12212000D01*
X33889000Y-13315000D02*
X33929000Y-13355000D01*
X33929000Y-13315000D02*
X33889000Y-13355000D01*
X34143000Y-11029000D02*
X34183000Y-11069000D01*
X34183000Y-11029000D02*
X34143000Y-11069000D01*
X34397000Y-10013000D02*
X34437000Y-10053000D01*
X34437000Y-10013000D02*
X34397000Y-10053000D01*
X34397000Y-11156000D02*
X34437000Y-11196000D01*
X34437000Y-11156000D02*
X34397000Y-11196000D01*
X34397000Y-11410000D02*
X34437000Y-11450000D01*
X34437000Y-11410000D02*
X34397000Y-11450000D01*
X34524000Y-12426000D02*
X34564000Y-12466000D01*
X34564000Y-12426000D02*
X34524000Y-12466000D01*
X34524000Y-12553000D02*
X34564000Y-12593000D01*
X34564000Y-12553000D02*
X34524000Y-12593000D01*
X34524000Y-13315000D02*
X34564000Y-13355000D01*
X34564000Y-13315000D02*
X34524000Y-13355000D01*
X34651000Y-11156000D02*
X34691000Y-11196000D01*
X34691000Y-11156000D02*
X34651000Y-11196000D01*
X34651000Y-13442000D02*
X34691000Y-13482000D01*
X34691000Y-13442000D02*
X34651000Y-13482000D01*
X34778000Y-11029000D02*
X34818000Y-11069000D01*
X34818000Y-11029000D02*
X34778000Y-11069000D01*
X34905000Y-12045000D02*
X34945000Y-12085000D01*
X34945000Y-12045000D02*
X34905000Y-12085000D01*
X34905000Y-12299000D02*
X34945000Y-12339000D01*
X34945000Y-12299000D02*
X34905000Y-12339000D01*
X35032000Y-10013000D02*
X35072000Y-10053000D01*
X35072000Y-10013000D02*
X35032000Y-10053000D01*
X35032000Y-12045000D02*
X35072000Y-12085000D01*
X35072000Y-12045000D02*
X35032000Y-12085000D01*
X35159000Y-11791000D02*
X35199000Y-11831000D01*
X35199000Y-11791000D02*
X35159000Y-11831000D01*
X35286000Y-12553000D02*
X35326000Y-12593000D01*
X35326000Y-12553000D02*
X35286000Y-12593000D01*
X35286000Y-13315000D02*
X35326000Y-13355000D01*
X35326000Y-13315000D02*
X35286000Y-13355000D01*
X35413000Y-11791000D02*
X35453000Y-11831000D01*
X35453000Y-11791000D02*
X35413000Y-11831000D01*
X35413000Y-13315000D02*
X35453000Y-13355000D01*
X35453000Y-13315000D02*
X35413000Y-13355000D01*
X35413000Y-13569000D02*
X35453000Y-13609000D01*
X35453000Y-13569000D02*
X35413000Y-13609000D01*
X35667000Y-9886000D02*
X35707000Y-9926000D01*
X35707000Y-9886000D02*
X35667000Y-9926000D01*
X35794000Y-11664000D02*
X35834000Y-11704000D01*
X35834000Y-11664000D02*
X35794000Y-11704000D01*
X36048000Y-9505000D02*
X36088000Y-9545000D01*
X36088000Y-9505000D02*
X36048000Y-9545000D01*
X36048000Y-12553000D02*
X36088000Y-12593000D01*
X36088000Y-12553000D02*
X36048000Y-12593000D01*
X36048000Y-13315000D02*
X36088000Y-13355000D01*
X36088000Y-13315000D02*
X36048000Y-13355000D01*
X36175000Y-11791000D02*
X36215000Y-11831000D01*
X36215000Y-11791000D02*
X36175000Y-11831000D01*
X36175000Y-12934000D02*
X36215000Y-12974000D01*
X36215000Y-12934000D02*
X36175000Y-12974000D01*
X36175000Y-13696000D02*
X36215000Y-13736000D01*
X36215000Y-13696000D02*
X36175000Y-13736000D01*
X36302000Y-12299000D02*
X36342000Y-12339000D01*
X36342000Y-12299000D02*
X36302000Y-12339000D01*
X36302000Y-12553000D02*
X36342000Y-12593000D01*
X36342000Y-12553000D02*
X36302000Y-12593000D01*
X36302000Y-13315000D02*
X36342000Y-13355000D01*
X36342000Y-13315000D02*
X36302000Y-13355000D01*
X36556000Y-11664000D02*
X36596000Y-11704000D01*
X36596000Y-11664000D02*
X36556000Y-11704000D01*
X36556000Y-12934000D02*
X36596000Y-12974000D01*
X36596000Y-12934000D02*
X36556000Y-12974000D01*
X36810000Y-12553000D02*
X36850000Y-12593000D01*
X36850000Y-12553000D02*
X36810000Y-12593000D01*
X36810000Y-13315000D02*
X36850000Y-13355000D01*
X36850000Y-13315000D02*
X36810000Y-13355000D01*
X36937000Y-12553000D02*
X36977000Y-12593000D01*
X36977000Y-12553000D02*
X36937000Y-12593000D01*
X36937000Y-13823000D02*
X36977000Y-13863000D01*
X36977000Y-13823000D02*
X36937000Y-13863000D01*
X37064000Y-12045000D02*
X37104000Y-12085000D01*
X37104000Y-12045000D02*
X37064000Y-12085000D01*
X37064000Y-13315000D02*
X37104000Y-13355000D01*
X37104000Y-13315000D02*
X37064000Y-13355000D01*
X37445000Y-8616000D02*
X37485000Y-8656000D01*
X37485000Y-8616000D02*
X37445000Y-8656000D01*
X37445000Y-9378000D02*
X37485000Y-9418000D01*
X37485000Y-9378000D02*
X37445000Y-9418000D01*
X37568000Y-9124000D02*
X37608000Y-9164000D01*
X37608000Y-9124000D02*
X37568000Y-9164000D01*
X37572000Y-11791000D02*
X37612000Y-11831000D01*
X37612000Y-11791000D02*
X37572000Y-11831000D01*
X37572000Y-12553000D02*
X37612000Y-12593000D01*
X37612000Y-12553000D02*
X37572000Y-12593000D01*
X37572000Y-13315000D02*
X37612000Y-13355000D01*
X37612000Y-13315000D02*
X37572000Y-13355000D01*
X37699000Y-5060000D02*
X37739000Y-5100000D01*
X37739000Y-5060000D02*
X37699000Y-5100000D01*
X37699000Y-5441000D02*
X37739000Y-5481000D01*
X37739000Y-5441000D02*
X37699000Y-5481000D01*
X37699000Y-8870000D02*
X37739000Y-8910000D01*
X37739000Y-8870000D02*
X37699000Y-8910000D01*
X37699000Y-12045000D02*
X37739000Y-12085000D01*
X37739000Y-12045000D02*
X37699000Y-12085000D01*
X37699000Y-13823000D02*
X37739000Y-13863000D01*
X37739000Y-13823000D02*
X37699000Y-13863000D01*
X38080000Y-5187000D02*
X38120000Y-5227000D01*
X38120000Y-5187000D02*
X38080000Y-5227000D01*
X38080000Y-8997000D02*
X38120000Y-9037000D01*
X38120000Y-8997000D02*
X38080000Y-9037000D01*
X38207000Y-11791000D02*
X38247000Y-11831000D01*
X38247000Y-11791000D02*
X38207000Y-11831000D01*
X38334000Y-12553000D02*
X38374000Y-12593000D01*
X38374000Y-12553000D02*
X38334000Y-12593000D01*
X38334000Y-13315000D02*
X38374000Y-13355000D01*
X38374000Y-13315000D02*
X38334000Y-13355000D01*
X38461000Y-8108000D02*
X38501000Y-8148000D01*
X38501000Y-8108000D02*
X38461000Y-8148000D01*
X38461000Y-12045000D02*
X38501000Y-12085000D01*
X38501000Y-12045000D02*
X38461000Y-12085000D01*
X38461000Y-13823000D02*
X38501000Y-13863000D01*
X38501000Y-13823000D02*
X38461000Y-13863000D01*
X38715000Y-4933000D02*
X38755000Y-4973000D01*
X38755000Y-4933000D02*
X38715000Y-4973000D01*
X38715000Y-10013000D02*
X38755000Y-10053000D01*
X38755000Y-10013000D02*
X38715000Y-10053000D01*
X38842000Y-10013000D02*
X38882000Y-10053000D01*
X38882000Y-10013000D02*
X38842000Y-10053000D01*
X38842000Y-11791000D02*
X38882000Y-11831000D01*
X38882000Y-11791000D02*
X38842000Y-11831000D01*
X38969000Y-10013000D02*
X39009000Y-10053000D01*
X39009000Y-10013000D02*
X38969000Y-10053000D01*
X39096000Y-10013000D02*
X39136000Y-10053000D01*
X39136000Y-10013000D02*
X39096000Y-10053000D01*
X39096000Y-12553000D02*
X39136000Y-12593000D01*
X39136000Y-12553000D02*
X39096000Y-12593000D01*
X39096000Y-13315000D02*
X39136000Y-13355000D01*
X39136000Y-13315000D02*
X39096000Y-13355000D01*
X39223000Y-5314000D02*
X39263000Y-5354000D01*
X39263000Y-5314000D02*
X39223000Y-5354000D01*
X39223000Y-5695000D02*
X39263000Y-5735000D01*
X39263000Y-5695000D02*
X39223000Y-5735000D01*
X39223000Y-12045000D02*
X39263000Y-12085000D01*
X39263000Y-12045000D02*
X39223000Y-12085000D01*
X39223000Y-13823000D02*
X39263000Y-13863000D01*
X39263000Y-13823000D02*
X39223000Y-13863000D01*
X39477000Y-11791000D02*
X39517000Y-11831000D01*
X39517000Y-11791000D02*
X39477000Y-11831000D01*
X39604000Y-5187000D02*
X39644000Y-5227000D01*
X39644000Y-5187000D02*
X39604000Y-5227000D01*
X39858000Y-12553000D02*
X39898000Y-12593000D01*
X39898000Y-12553000D02*
X39858000Y-12593000D01*
X39858000Y-13315000D02*
X39898000Y-13355000D01*
X39898000Y-13315000D02*
X39858000Y-13355000D01*
X39985000Y-12045000D02*
X40025000Y-12085000D01*
X40025000Y-12045000D02*
X39985000Y-12085000D01*
X39985000Y-13823000D02*
X40025000Y-13863000D01*
X40025000Y-13823000D02*
X39985000Y-13863000D01*
X40112000Y-5568000D02*
X40152000Y-5608000D01*
X40152000Y-5568000D02*
X40112000Y-5608000D01*
X40112000Y-10902000D02*
X40152000Y-10942000D01*
X40152000Y-10902000D02*
X40112000Y-10942000D01*
X40239000Y-4933000D02*
X40279000Y-4973000D01*
X40279000Y-4933000D02*
X40239000Y-4973000D01*
X40366000Y-5568000D02*
X40406000Y-5608000D01*
X40406000Y-5568000D02*
X40366000Y-5608000D01*
X40366000Y-10902000D02*
X40406000Y-10942000D01*
X40406000Y-10902000D02*
X40366000Y-10942000D01*
X40366000Y-11791000D02*
X40406000Y-11831000D01*
X40406000Y-11791000D02*
X40366000Y-11831000D01*
X40366000Y-12934000D02*
X40406000Y-12974000D01*
X40406000Y-12934000D02*
X40366000Y-12974000D01*
X40620000Y-10902000D02*
X40660000Y-10942000D01*
X40660000Y-10902000D02*
X40620000Y-10942000D01*
X40620000Y-12553000D02*
X40660000Y-12593000D01*
X40660000Y-12553000D02*
X40620000Y-12593000D01*
X40620000Y-13315000D02*
X40660000Y-13355000D01*
X40660000Y-13315000D02*
X40620000Y-13355000D01*
X40747000Y-5314000D02*
X40787000Y-5354000D01*
X40787000Y-5314000D02*
X40747000Y-5354000D01*
X40747000Y-12045000D02*
X40787000Y-12085000D01*
X40787000Y-12045000D02*
X40747000Y-12085000D01*
X40747000Y-13823000D02*
X40787000Y-13863000D01*
X40787000Y-13823000D02*
X40747000Y-13863000D01*
X40874000Y-10902000D02*
X40914000Y-10942000D01*
X40914000Y-10902000D02*
X40874000Y-10942000D01*
X41128000Y-5187000D02*
X41168000Y-5227000D01*
X41168000Y-5187000D02*
X41128000Y-5227000D01*
X41255000Y-5314000D02*
X41295000Y-5354000D01*
X41295000Y-5314000D02*
X41255000Y-5354000D01*
X41382000Y-12553000D02*
X41422000Y-12593000D01*
X41422000Y-12553000D02*
X41382000Y-12593000D01*
X41382000Y-13315000D02*
X41422000Y-13355000D01*
X41422000Y-13315000D02*
X41382000Y-13355000D01*
X41509000Y-12045000D02*
X41549000Y-12085000D01*
X41549000Y-12045000D02*
X41509000Y-12085000D01*
X41509000Y-13823000D02*
X41549000Y-13863000D01*
X41549000Y-13823000D02*
X41509000Y-13863000D01*
X41763000Y-4933000D02*
X41803000Y-4973000D01*
X41803000Y-4933000D02*
X41763000Y-4973000D01*
X41763000Y-5695000D02*
X41803000Y-5735000D01*
X41803000Y-5695000D02*
X41763000Y-5735000D01*
X42144000Y-12553000D02*
X42184000Y-12593000D01*
X42184000Y-12553000D02*
X42144000Y-12593000D01*
X42144000Y-13315000D02*
X42184000Y-13355000D01*
X42184000Y-13315000D02*
X42144000Y-13355000D01*
X42271000Y-5314000D02*
X42311000Y-5354000D01*
X42311000Y-5314000D02*
X42271000Y-5354000D01*
X42271000Y-12045000D02*
X42311000Y-12085000D01*
X42311000Y-12045000D02*
X42271000Y-12085000D01*
X42271000Y-13823000D02*
X42311000Y-13863000D01*
X42311000Y-13823000D02*
X42271000Y-13863000D01*
X42652000Y-5187000D02*
X42692000Y-5227000D01*
X42692000Y-5187000D02*
X42652000Y-5227000D01*
X42906000Y-4298000D02*
X42946000Y-4338000D01*
X42946000Y-4298000D02*
X42906000Y-4338000D01*
X42906000Y-12553000D02*
X42946000Y-12593000D01*
X42946000Y-12553000D02*
X42906000Y-12593000D01*
X42906000Y-13315000D02*
X42946000Y-13355000D01*
X42946000Y-13315000D02*
X42906000Y-13355000D01*
X43033000Y-12045000D02*
X43073000Y-12085000D01*
X43073000Y-12045000D02*
X43033000Y-12085000D01*
X43033000Y-13823000D02*
X43073000Y-13863000D01*
X43073000Y-13823000D02*
X43033000Y-13863000D01*
X43160000Y-5822000D02*
X43200000Y-5862000D01*
X43200000Y-5822000D02*
X43160000Y-5862000D01*
X43287000Y-4298000D02*
X43327000Y-4338000D01*
X43327000Y-4298000D02*
X43287000Y-4338000D01*
X43287000Y-4933000D02*
X43327000Y-4973000D01*
X43327000Y-4933000D02*
X43287000Y-4973000D01*
X43541000Y-4679000D02*
X43581000Y-4719000D01*
X43581000Y-4679000D02*
X43541000Y-4719000D01*
X43668000Y-12553000D02*
X43708000Y-12593000D01*
X43708000Y-12553000D02*
X43668000Y-12593000D01*
X43668000Y-13315000D02*
X43708000Y-13355000D01*
X43708000Y-13315000D02*
X43668000Y-13355000D01*
X43795000Y-5314000D02*
X43835000Y-5354000D01*
X43835000Y-5314000D02*
X43795000Y-5354000D01*
X43795000Y-12045000D02*
X43835000Y-12085000D01*
X43835000Y-12045000D02*
X43795000Y-12085000D01*
X43795000Y-13823000D02*
X43835000Y-13863000D01*
X43835000Y-13823000D02*
X43795000Y-13863000D01*
X44049000Y-8997000D02*
X44089000Y-9037000D01*
X44089000Y-8997000D02*
X44049000Y-9037000D01*
X44049000Y-9378000D02*
X44089000Y-9418000D01*
X44089000Y-9378000D02*
X44049000Y-9418000D01*
X44049000Y-10267000D02*
X44089000Y-10307000D01*
X44089000Y-10267000D02*
X44049000Y-10307000D01*
X44176000Y-5187000D02*
X44216000Y-5227000D01*
X44216000Y-5187000D02*
X44176000Y-5227000D01*
X44176000Y-10775000D02*
X44216000Y-10815000D01*
X44216000Y-10775000D02*
X44176000Y-10815000D01*
X44176000Y-11918000D02*
X44216000Y-11958000D01*
X44216000Y-11918000D02*
X44176000Y-11958000D01*
X44176000Y-12934000D02*
X44216000Y-12974000D01*
X44216000Y-12934000D02*
X44176000Y-12974000D01*
X44303000Y-10902000D02*
X44343000Y-10942000D01*
X44343000Y-10902000D02*
X44303000Y-10942000D01*
X44303000Y-11410000D02*
X44343000Y-11450000D01*
X44343000Y-11410000D02*
X44303000Y-11450000D01*
X44430000Y-11664000D02*
X44470000Y-11704000D01*
X44470000Y-11664000D02*
X44430000Y-11704000D01*
X44430000Y-12553000D02*
X44470000Y-12593000D01*
X44470000Y-12553000D02*
X44430000Y-12593000D01*
X44430000Y-13315000D02*
X44470000Y-13355000D01*
X44470000Y-13315000D02*
X44430000Y-13355000D01*
X44684000Y-11029000D02*
X44724000Y-11069000D01*
X44724000Y-11029000D02*
X44684000Y-11069000D01*
X44684000Y-11791000D02*
X44724000Y-11831000D01*
X44724000Y-11791000D02*
X44684000Y-11831000D01*
X44684000Y-12426000D02*
X44724000Y-12466000D01*
X44724000Y-12426000D02*
X44684000Y-12466000D01*
X44811000Y-4933000D02*
X44851000Y-4973000D01*
X44851000Y-4933000D02*
X44811000Y-4973000D01*
X44811000Y-10267000D02*
X44851000Y-10307000D01*
X44851000Y-10267000D02*
X44811000Y-10307000D01*
X44811000Y-13696000D02*
X44851000Y-13736000D01*
X44851000Y-13696000D02*
X44811000Y-13736000D01*
X44938000Y-4806000D02*
X44978000Y-4846000D01*
X44978000Y-4806000D02*
X44938000Y-4846000D01*
X45065000Y-8997000D02*
X45105000Y-9037000D01*
X45105000Y-8997000D02*
X45065000Y-9037000D01*
X45065000Y-9886000D02*
X45105000Y-9926000D01*
X45105000Y-9886000D02*
X45065000Y-9926000D01*
X45065000Y-10267000D02*
X45105000Y-10307000D01*
X45105000Y-10267000D02*
X45065000Y-10307000D01*
X45319000Y-9505000D02*
X45359000Y-9545000D01*
X45359000Y-9505000D02*
X45319000Y-9545000D01*
X45319000Y-12934000D02*
X45359000Y-12974000D01*
X45359000Y-12934000D02*
X45319000Y-12974000D01*
X45446000Y-4933000D02*
X45486000Y-4973000D01*
X45486000Y-4933000D02*
X45446000Y-4973000D01*
X45446000Y-5441000D02*
X45486000Y-5481000D01*
X45486000Y-5441000D02*
X45446000Y-5481000D01*
X45446000Y-11791000D02*
X45486000Y-11831000D01*
X45486000Y-11791000D02*
X45446000Y-11831000D01*
X45573000Y-5568000D02*
X45613000Y-5608000D01*
X45613000Y-5568000D02*
X45573000Y-5608000D01*
X45573000Y-10140000D02*
X45613000Y-10180000D01*
X45613000Y-10140000D02*
X45573000Y-10180000D01*
X45573000Y-10648000D02*
X45613000Y-10688000D01*
X45613000Y-10648000D02*
X45573000Y-10688000D01*
X45700000Y-4679000D02*
X45740000Y-4719000D01*
X45740000Y-4679000D02*
X45700000Y-4719000D01*
X45700000Y-10013000D02*
X45740000Y-10053000D01*
X45740000Y-10013000D02*
X45700000Y-10053000D01*
X45700000Y-10648000D02*
X45740000Y-10688000D01*
X45740000Y-10648000D02*
X45700000Y-10688000D01*
X45827000Y-9378000D02*
X45867000Y-9418000D01*
X45867000Y-9378000D02*
X45827000Y-9418000D01*
X45827000Y-9886000D02*
X45867000Y-9926000D01*
X45867000Y-9886000D02*
X45827000Y-9926000D01*
X45827000Y-10648000D02*
X45867000Y-10688000D01*
X45867000Y-10648000D02*
X45827000Y-10688000D01*
X45954000Y-4806000D02*
X45994000Y-4846000D01*
X45994000Y-4806000D02*
X45954000Y-4846000D01*
X45954000Y-11664000D02*
X45994000Y-11704000D01*
X45994000Y-11664000D02*
X45954000Y-11704000D01*
X45954000Y-12807000D02*
X45994000Y-12847000D01*
X45994000Y-12807000D02*
X45954000Y-12847000D01*
X46081000Y-12680000D02*
X46121000Y-12720000D01*
X46121000Y-12680000D02*
X46081000Y-12720000D01*
X46208000Y-12553000D02*
X46248000Y-12593000D01*
X46248000Y-12553000D02*
X46208000Y-12593000D01*
X46335000Y-12426000D02*
X46375000Y-12466000D01*
X46375000Y-12426000D02*
X46335000Y-12466000D01*
X46462000Y-4298000D02*
X46502000Y-4338000D01*
X46502000Y-4298000D02*
X46462000Y-4338000D01*
X46462000Y-11156000D02*
X46502000Y-11196000D01*
X46502000Y-11156000D02*
X46462000Y-11196000D01*
X47097000Y-4933000D02*
X47137000Y-4973000D01*
X47137000Y-4933000D02*
X47097000Y-4973000D01*
X47351000Y-4425000D02*
X47391000Y-4465000D01*
X47391000Y-4425000D02*
X47351000Y-4465000D01*
X47351000Y-6330000D02*
X47391000Y-6370000D01*
X47391000Y-6330000D02*
X47351000Y-6370000D01*
X47478000Y-6584000D02*
X47518000Y-6624000D01*
X47518000Y-6584000D02*
X47478000Y-6624000D01*
X47986000Y-4933000D02*
X48026000Y-4973000D01*
X48026000Y-4933000D02*
X47986000Y-4973000D01*
X47986000Y-6584000D02*
X48026000Y-6624000D01*
X48026000Y-6584000D02*
X47986000Y-6624000D01*
X48113000Y-4933000D02*
X48153000Y-4973000D01*
X48153000Y-4933000D02*
X48113000Y-4973000D01*
X48113000Y-6584000D02*
X48153000Y-6624000D01*
X48153000Y-6584000D02*
X48113000Y-6624000D01*
X48249472Y-5154612D02*
X48289472Y-5194612D01*
X48289472Y-5154612D02*
X48249472Y-5194612D01*
X48249472Y-5281612D02*
X48289472Y-5321612D01*
X48289472Y-5281612D02*
X48249472Y-5321612D01*
X48249472Y-5408612D02*
X48289472Y-5448612D01*
X48289472Y-5408612D02*
X48249472Y-5448612D01*
X48249472Y-5535612D02*
X48289472Y-5575612D01*
X48289472Y-5535612D02*
X48249472Y-5575612D01*
X48376472Y-5154612D02*
X48416472Y-5194612D01*
X48416472Y-5154612D02*
X48376472Y-5194612D01*
X48376472Y-5281612D02*
X48416472Y-5321612D01*
X48416472Y-5281612D02*
X48376472Y-5321612D01*
X48376472Y-5408612D02*
X48416472Y-5448612D01*
X48416472Y-5408612D02*
X48376472Y-5448612D01*
X48376472Y-5535612D02*
X48416472Y-5575612D01*
X48416472Y-5535612D02*
X48376472Y-5575612D01*
X48494000Y-7727000D02*
X48534000Y-7767000D01*
X48534000Y-7727000D02*
X48494000Y-7767000D01*
X48503472Y-5154612D02*
X48543472Y-5194612D01*
X48543472Y-5154612D02*
X48503472Y-5194612D01*
X48503472Y-5281612D02*
X48543472Y-5321612D01*
X48543472Y-5281612D02*
X48503472Y-5321612D01*
X48503472Y-5408612D02*
X48543472Y-5448612D01*
X48543472Y-5408612D02*
X48503472Y-5448612D01*
X48503472Y-5535612D02*
X48543472Y-5575612D01*
X48543472Y-5535612D02*
X48503472Y-5575612D01*
X48630472Y-5154612D02*
X48670472Y-5194612D01*
X48670472Y-5154612D02*
X48630472Y-5194612D01*
X48630472Y-5281612D02*
X48670472Y-5321612D01*
X48670472Y-5281612D02*
X48630472Y-5321612D01*
X48630472Y-5408612D02*
X48670472Y-5448612D01*
X48670472Y-5408612D02*
X48630472Y-5448612D01*
X48630472Y-5535612D02*
X48670472Y-5575612D01*
X48670472Y-5535612D02*
X48630472Y-5575612D01*
X48748000Y-4806000D02*
X48788000Y-4846000D01*
X48788000Y-4806000D02*
X48748000Y-4846000D01*
X48875000Y-4933000D02*
X48915000Y-4973000D01*
X48915000Y-4933000D02*
X48875000Y-4973000D01*
X49046500Y-5015500D02*
X49086500Y-5055500D01*
X49086500Y-5015500D02*
X49046500Y-5055500D01*
X49046500Y-6755500D02*
X49086500Y-6795500D01*
X49086500Y-6755500D02*
X49046500Y-6795500D01*
X49129000Y-7981000D02*
X49169000Y-8021000D01*
X49169000Y-7981000D02*
X49129000Y-8021000D01*
X49848118Y-15073599D02*
G75*
G03*
X49848118Y-15073599I-25000J0D01*
G01*
X49783118Y-15088599D02*
X49863118Y-15088599D01*
X49783118Y-15058599D02*
X49863118Y-15058599D01*
X49863118Y-15088599D02*
G75*
G03*
X49863118Y-15058599I0J15000D01*
G01*
X49783118Y-15058599D02*
G75*
G03*
X49783118Y-15088599I0J-15000D01*
G01*
X49848118Y-15793599D02*
G75*
G03*
X49848118Y-15793599I-25000J0D01*
G01*
X49863118Y-15778599D02*
X49783118Y-15778599D01*
X49863118Y-15808599D02*
X49783118Y-15808599D01*
X49783118Y-15778599D02*
G75*
G03*
X49783118Y-15808599I0J-15000D01*
G01*
X49863118Y-15808599D02*
G75*
G03*
X49863118Y-15778599I0J15000D01*
G01*
X49558118Y-15156099D02*
X49558118Y-15226099D01*
X49523118Y-15191099D02*
X49593118Y-15191099D01*
X49558118Y-15641099D02*
X49558118Y-15711099D01*
X49523118Y-15676099D02*
X49593118Y-15676099D01*
X15268284Y-9934285D02*
X15268284Y-9877716D01*
X15211715Y-9877716D01*
X15211715Y-9934285D01*
X15268284Y-9934285D01*
X19586285Y-9934285D02*
X19586285Y-9877716D01*
X19529716Y-9877716D01*
X19529716Y-9934285D01*
X19586285Y-9934285D01*
X20856285Y-11712284D02*
X20856285Y-11655715D01*
X20799716Y-11655715D01*
X20799716Y-11712284D01*
X20856285Y-11712284D01*
X23015284Y-9172285D02*
X23015284Y-9115716D01*
X22958715Y-9115716D01*
X22958715Y-9172285D01*
X23015284Y-9172285D01*
X23650284Y-10188285D02*
X23650284Y-10131716D01*
X23593715Y-10131716D01*
X23593715Y-10188285D01*
X23650284Y-10188285D01*
X24539284Y-9934285D02*
X24539284Y-9877716D01*
X24482715Y-9877716D01*
X24482715Y-9934285D01*
X24539284Y-9934285D01*
X26698284Y-14125284D02*
X26698284Y-14068715D01*
X26641715Y-14068715D01*
X26641715Y-14125284D01*
X26698284Y-14125284D01*
X26952284Y-9934285D02*
X26952284Y-9877716D01*
X26895715Y-9877716D01*
X26895715Y-9934285D01*
X26952284Y-9934285D01*
X27841284Y-9680285D02*
X27841284Y-9623716D01*
X27784715Y-9623716D01*
X27784715Y-9680285D01*
X27841284Y-9680285D01*
X29492284Y-10061285D02*
X29492284Y-10004716D01*
X29435715Y-10004716D01*
X29435715Y-10061285D01*
X29492284Y-10061285D01*
X36096285Y-10315285D02*
X36096285Y-10258716D01*
X36039716Y-10258716D01*
X36039716Y-10315285D01*
X36096285Y-10315285D01*
X38890285Y-9172285D02*
X38890285Y-9115716D01*
X38833716Y-9115716D01*
X38833716Y-9172285D01*
X38890285Y-9172285D01*
X39652285Y-6378284D02*
X39652285Y-6321715D01*
X39595716Y-6321715D01*
X39595716Y-6378284D01*
X39652285Y-6378284D01*
X39652285Y-7775284D02*
X39652285Y-7718715D01*
X39595716Y-7718715D01*
X39595716Y-7775284D01*
X39652285Y-7775284D01*
X39652285Y-9045285D02*
X39652285Y-8988716D01*
X39595716Y-8988716D01*
X39595716Y-9045285D01*
X39652285Y-9045285D01*
X39652285Y-10061285D02*
X39652285Y-10004716D01*
X39595716Y-10004716D01*
X39595716Y-10061285D01*
X39652285Y-10061285D01*
X41938285Y-11458284D02*
X41938285Y-11401715D01*
X41881716Y-11401715D01*
X41881716Y-11458284D01*
X41938285Y-11458284D01*
X41938285Y-14125284D02*
X41938285Y-14068715D01*
X41881716Y-14068715D01*
X41881716Y-14125284D01*
X41938285Y-14125284D01*
X46129284Y-4473285D02*
X46129284Y-4416716D01*
X46072715Y-4416716D01*
X46072715Y-4473285D01*
X46129284Y-4473285D01*
X46383284Y-4473285D02*
X46383284Y-4416716D01*
X46326715Y-4416716D01*
X46326715Y-4473285D01*
X46383284Y-4473285D01*
X46637284Y-4473285D02*
X46637284Y-4416716D01*
X46580715Y-4416716D01*
X46580715Y-4473285D01*
X46637284Y-4473285D01*
X48542284Y-7267284D02*
X48542284Y-7210715D01*
X48485715Y-7210715D01*
X48485715Y-7267284D01*
X48542284Y-7267284D01*
X34925000Y-5130000D02*
X34975000Y-5080000D01*
X34925000Y-5030000D01*
X34875000Y-5080000D01*
X34925000Y-5130000D01*
X35179000Y-5130000D02*
X35229000Y-5080000D01*
X35179000Y-5030000D01*
X35129000Y-5080000D01*
X35179000Y-5130000D01*
X35433000Y-5130000D02*
X35483000Y-5080000D01*
X35433000Y-5030000D01*
X35383000Y-5080000D01*
X35433000Y-5130000D01*
X35687000Y-5130000D02*
X35737000Y-5080000D01*
X35687000Y-5030000D01*
X35637000Y-5080000D01*
X35687000Y-5130000D01*
X35941000Y-5130000D02*
X35991000Y-5080000D01*
X35941000Y-5030000D01*
X35891000Y-5080000D01*
X35941000Y-5130000D01*
X36195000Y-5130000D02*
X36245000Y-5080000D01*
X36195000Y-5030000D01*
X36145000Y-5080000D01*
X36195000Y-5130000D01*
X48895000Y-8559000D02*
X48945000Y-8509000D01*
X48895000Y-8459000D01*
X48845000Y-8509000D01*
X48895000Y-8559000D01*
X48895000Y-8813000D02*
X48945000Y-8763000D01*
X48895000Y-8713000D01*
X48845000Y-8763000D01*
X48895000Y-8813000D01*
X48895000Y-9067000D02*
X48945000Y-9017000D01*
X48895000Y-8967000D01*
X48845000Y-9017000D01*
X48895000Y-9067000D01*
X48895000Y-9321000D02*
X48945000Y-9271000D01*
X48895000Y-9221000D01*
X48845000Y-9271000D01*
X48895000Y-9321000D01*
X48895000Y-13512000D02*
X48945000Y-13462000D01*
X48895000Y-13412000D01*
X48845000Y-13462000D01*
X48895000Y-13512000D01*
X48895000Y-13766000D02*
X48945000Y-13716000D01*
X48895000Y-13666000D01*
X48845000Y-13716000D01*
X48895000Y-13766000D01*
D12*
X5283928Y-16468214D02*
X5283928Y-16168214D01*
X5355357Y-16168214D01*
X5398214Y-16182500D01*
X5426786Y-16211071D01*
X5441071Y-16239643D01*
X5455357Y-16296786D01*
X5455357Y-16339643D01*
X5441071Y-16396786D01*
X5426786Y-16425357D01*
X5398214Y-16453929D01*
X5355357Y-16468214D01*
X5283928Y-16468214D01*
X5583928Y-16468214D02*
X5583928Y-16268214D01*
X5583928Y-16325357D02*
X5598214Y-16296786D01*
X5612500Y-16282500D01*
X5641071Y-16268214D01*
X5669643Y-16268214D01*
X5769643Y-16468214D02*
X5769643Y-16268214D01*
X5769643Y-16168214D02*
X5755357Y-16182500D01*
X5769643Y-16196786D01*
X5783928Y-16182500D01*
X5769643Y-16168214D01*
X5769643Y-16196786D01*
X5955357Y-16468214D02*
X5926786Y-16453929D01*
X5912500Y-16425357D01*
X5912500Y-16168214D01*
X6112500Y-16468214D02*
X6083928Y-16453929D01*
X6069643Y-16425357D01*
X6069643Y-16168214D01*
X6455357Y-16468214D02*
X6455357Y-16168214D01*
X6555357Y-16382500D01*
X6655357Y-16168214D01*
X6655357Y-16468214D01*
X6926786Y-16468214D02*
X6926786Y-16311071D01*
X6912500Y-16282500D01*
X6883928Y-16268214D01*
X6826786Y-16268214D01*
X6798214Y-16282500D01*
X6926786Y-16453929D02*
X6898214Y-16468214D01*
X6826786Y-16468214D01*
X6798214Y-16453929D01*
X6783928Y-16425357D01*
X6783928Y-16396786D01*
X6798214Y-16368214D01*
X6826786Y-16353929D01*
X6898214Y-16353929D01*
X6926786Y-16339643D01*
X7069643Y-16268214D02*
X7069643Y-16568214D01*
X7069643Y-16282500D02*
X7098214Y-16268214D01*
X7155357Y-16268214D01*
X7183928Y-16282500D01*
X7198214Y-16296786D01*
X7212500Y-16325357D01*
X7212500Y-16411071D01*
X7198214Y-16439643D01*
X7183928Y-16453929D01*
X7155357Y-16468214D01*
X7098214Y-16468214D01*
X7069643Y-16453929D01*
X7341071Y-16439643D02*
X7355357Y-16453929D01*
X7341071Y-16468214D01*
X7326786Y-16453929D01*
X7341071Y-16439643D01*
X7341071Y-16468214D01*
X7341071Y-16282500D02*
X7355357Y-16296786D01*
X7341071Y-16311071D01*
X7326786Y-16296786D01*
X7341071Y-16282500D01*
X7341071Y-16311071D01*
X4957500Y-16942500D02*
X4997500Y-16982500D01*
X4997500Y-16942500D02*
X4957500Y-16982500D01*
X5341071Y-16798214D02*
X5369643Y-16798214D01*
X5398214Y-16812500D01*
X5412500Y-16826786D01*
X5426786Y-16855357D01*
X5441071Y-16912500D01*
X5441071Y-16983929D01*
X5426786Y-17041072D01*
X5412500Y-17069643D01*
X5398214Y-17083929D01*
X5369643Y-17098214D01*
X5341071Y-17098214D01*
X5312500Y-17083929D01*
X5298214Y-17069643D01*
X5283928Y-17041072D01*
X5269643Y-16983929D01*
X5269643Y-16912500D01*
X5283928Y-16855357D01*
X5298214Y-16826786D01*
X5312500Y-16812500D01*
X5341071Y-16798214D01*
X5569643Y-17069643D02*
X5583928Y-17083929D01*
X5569643Y-17098214D01*
X5555357Y-17083929D01*
X5569643Y-17069643D01*
X5569643Y-17098214D01*
X5841071Y-16898214D02*
X5841071Y-17098214D01*
X5769643Y-16783929D02*
X5698214Y-16998214D01*
X5883928Y-16998214D01*
X6055357Y-16798214D02*
X6083928Y-16798214D01*
X6112500Y-16812500D01*
X6126786Y-16826786D01*
X6141071Y-16855357D01*
X6155357Y-16912500D01*
X6155357Y-16983929D01*
X6141071Y-17041072D01*
X6126786Y-17069643D01*
X6112500Y-17083929D01*
X6083928Y-17098214D01*
X6055357Y-17098214D01*
X6026786Y-17083929D01*
X6012500Y-17069643D01*
X5998214Y-17041072D01*
X5983928Y-16983929D01*
X5983928Y-16912500D01*
X5998214Y-16855357D01*
X6012500Y-16826786D01*
X6026786Y-16812500D01*
X6055357Y-16798214D01*
X6341071Y-16798214D02*
X6369643Y-16798214D01*
X6398214Y-16812500D01*
X6412500Y-16826786D01*
X6426786Y-16855357D01*
X6441071Y-16912500D01*
X6441071Y-16983929D01*
X6426786Y-17041072D01*
X6412500Y-17069643D01*
X6398214Y-17083929D01*
X6369643Y-17098214D01*
X6341071Y-17098214D01*
X6312500Y-17083929D01*
X6298214Y-17069643D01*
X6283928Y-17041072D01*
X6269643Y-16983929D01*
X6269643Y-16912500D01*
X6283928Y-16855357D01*
X6298214Y-16826786D01*
X6312500Y-16812500D01*
X6341071Y-16798214D01*
X6569643Y-17098214D02*
X6569643Y-16898214D01*
X6569643Y-16926786D02*
X6583928Y-16912500D01*
X6612500Y-16898214D01*
X6655357Y-16898214D01*
X6683928Y-16912500D01*
X6698214Y-16941072D01*
X6698214Y-17098214D01*
X6698214Y-16941072D02*
X6712500Y-16912500D01*
X6741071Y-16898214D01*
X6783928Y-16898214D01*
X6812500Y-16912500D01*
X6826786Y-16941072D01*
X6826786Y-17098214D01*
X6969643Y-17098214D02*
X6969643Y-16898214D01*
X6969643Y-16926786D02*
X6983928Y-16912500D01*
X7012500Y-16898214D01*
X7055357Y-16898214D01*
X7083928Y-16912500D01*
X7098214Y-16941072D01*
X7098214Y-17098214D01*
X7098214Y-16941072D02*
X7112500Y-16912500D01*
X7141071Y-16898214D01*
X7183928Y-16898214D01*
X7212500Y-16912500D01*
X7226786Y-16941072D01*
X7226786Y-17098214D01*
X7812500Y-16783929D02*
X7555357Y-17169643D01*
X8198214Y-16798214D02*
X8226786Y-16798214D01*
X8255357Y-16812500D01*
X8269643Y-16826786D01*
X8283928Y-16855357D01*
X8298214Y-16912500D01*
X8298214Y-16983929D01*
X8283928Y-17041072D01*
X8269643Y-17069643D01*
X8255357Y-17083929D01*
X8226786Y-17098214D01*
X8198214Y-17098214D01*
X8169643Y-17083929D01*
X8155357Y-17069643D01*
X8141071Y-17041072D01*
X8126786Y-16983929D01*
X8126786Y-16912500D01*
X8141071Y-16855357D01*
X8155357Y-16826786D01*
X8169643Y-16812500D01*
X8198214Y-16798214D01*
X8426786Y-17069643D02*
X8441071Y-17083929D01*
X8426786Y-17098214D01*
X8412500Y-17083929D01*
X8426786Y-17069643D01*
X8426786Y-17098214D01*
X8626786Y-16798214D02*
X8655357Y-16798214D01*
X8683928Y-16812500D01*
X8698214Y-16826786D01*
X8712500Y-16855357D01*
X8726786Y-16912500D01*
X8726786Y-16983929D01*
X8712500Y-17041072D01*
X8698214Y-17069643D01*
X8683928Y-17083929D01*
X8655357Y-17098214D01*
X8626786Y-17098214D01*
X8598214Y-17083929D01*
X8583928Y-17069643D01*
X8569643Y-17041072D01*
X8555357Y-16983929D01*
X8555357Y-16912500D01*
X8569643Y-16855357D01*
X8583928Y-16826786D01*
X8598214Y-16812500D01*
X8626786Y-16798214D01*
X9012500Y-17098214D02*
X8841071Y-17098214D01*
X8926786Y-17098214D02*
X8926786Y-16798214D01*
X8898214Y-16841072D01*
X8869643Y-16869643D01*
X8841071Y-16883929D01*
X9283928Y-16798214D02*
X9141071Y-16798214D01*
X9126786Y-16941072D01*
X9141071Y-16926786D01*
X9169643Y-16912500D01*
X9241071Y-16912500D01*
X9269643Y-16926786D01*
X9283928Y-16941072D01*
X9298214Y-16969643D01*
X9298214Y-17041072D01*
X9283928Y-17069643D01*
X9269643Y-17083929D01*
X9241071Y-17098214D01*
X9169643Y-17098214D01*
X9141071Y-17083929D01*
X9126786Y-17069643D01*
X9398214Y-16798214D02*
X9598214Y-16798214D01*
X9469643Y-17098214D01*
X9698214Y-16798214D02*
X9698214Y-16855357D01*
X9812500Y-16798214D02*
X9812500Y-16855357D01*
X10255357Y-17212500D02*
X10241071Y-17198214D01*
X10212500Y-17155357D01*
X10198214Y-17126786D01*
X10183928Y-17083929D01*
X10169643Y-17012500D01*
X10169643Y-16955357D01*
X10183928Y-16883929D01*
X10198214Y-16841072D01*
X10212500Y-16812500D01*
X10241071Y-16769643D01*
X10255357Y-16755357D01*
X10512500Y-16798214D02*
X10369643Y-16798214D01*
X10355357Y-16941072D01*
X10369643Y-16926786D01*
X10398214Y-16912500D01*
X10469643Y-16912500D01*
X10498214Y-16926786D01*
X10512500Y-16941072D01*
X10526786Y-16969643D01*
X10526786Y-17041072D01*
X10512500Y-17069643D01*
X10498214Y-17083929D01*
X10469643Y-17098214D01*
X10398214Y-17098214D01*
X10369643Y-17083929D01*
X10355357Y-17069643D01*
X10798214Y-16798214D02*
X10655357Y-16798214D01*
X10641071Y-16941072D01*
X10655357Y-16926786D01*
X10683928Y-16912500D01*
X10755357Y-16912500D01*
X10783928Y-16926786D01*
X10798214Y-16941072D01*
X10812500Y-16969643D01*
X10812500Y-17041072D01*
X10798214Y-17069643D01*
X10783928Y-17083929D01*
X10755357Y-17098214D01*
X10683928Y-17098214D01*
X10655357Y-17083929D01*
X10641071Y-17069643D01*
X11069643Y-16898214D02*
X11069643Y-17098214D01*
X10998214Y-16783929D02*
X10926786Y-16998214D01*
X11112500Y-16998214D01*
X11455357Y-17098214D02*
X11455357Y-16798214D01*
X11583928Y-17098214D02*
X11583928Y-16941072D01*
X11569643Y-16912500D01*
X11541071Y-16898214D01*
X11498214Y-16898214D01*
X11469643Y-16912500D01*
X11455357Y-16926786D01*
X11769643Y-17098214D02*
X11741071Y-17083929D01*
X11726786Y-17069643D01*
X11712500Y-17041072D01*
X11712500Y-16955357D01*
X11726786Y-16926786D01*
X11741071Y-16912500D01*
X11769643Y-16898214D01*
X11812500Y-16898214D01*
X11841071Y-16912500D01*
X11855357Y-16926786D01*
X11869643Y-16955357D01*
X11869643Y-17041072D01*
X11855357Y-17069643D01*
X11841071Y-17083929D01*
X11812500Y-17098214D01*
X11769643Y-17098214D01*
X12041071Y-17098214D02*
X12012500Y-17083929D01*
X11998214Y-17055357D01*
X11998214Y-16798214D01*
X12269643Y-17083929D02*
X12241071Y-17098214D01*
X12183928Y-17098214D01*
X12155357Y-17083929D01*
X12141071Y-17055357D01*
X12141071Y-16941072D01*
X12155357Y-16912500D01*
X12183928Y-16898214D01*
X12241071Y-16898214D01*
X12269643Y-16912500D01*
X12283928Y-16941072D01*
X12283928Y-16969643D01*
X12141071Y-16998214D01*
X12398214Y-17083929D02*
X12426786Y-17098214D01*
X12483928Y-17098214D01*
X12512500Y-17083929D01*
X12526786Y-17055357D01*
X12526786Y-17041072D01*
X12512500Y-17012500D01*
X12483928Y-16998214D01*
X12441071Y-16998214D01*
X12412500Y-16983929D01*
X12398214Y-16955357D01*
X12398214Y-16941072D01*
X12412500Y-16912500D01*
X12441071Y-16898214D01*
X12483928Y-16898214D01*
X12512500Y-16912500D01*
X12626786Y-17212500D02*
X12641071Y-17198214D01*
X12669643Y-17155357D01*
X12683928Y-17126786D01*
X12698214Y-17083929D01*
X12712500Y-17012500D01*
X12712500Y-16955357D01*
X12698214Y-16883929D01*
X12683928Y-16841072D01*
X12669643Y-16812500D01*
X12641071Y-16769643D01*
X12626786Y-16755357D01*
X4997500Y-17358500D02*
G75*
G03*
X4997500Y-17358500I-25000J0D01*
G01*
X5341071Y-17194214D02*
X5369643Y-17194214D01*
X5398214Y-17208500D01*
X5412500Y-17222786D01*
X5426786Y-17251357D01*
X5441071Y-17308500D01*
X5441071Y-17379929D01*
X5426786Y-17437072D01*
X5412500Y-17465643D01*
X5398214Y-17479929D01*
X5369643Y-17494214D01*
X5341071Y-17494214D01*
X5312500Y-17479929D01*
X5298214Y-17465643D01*
X5283928Y-17437072D01*
X5269643Y-17379929D01*
X5269643Y-17308500D01*
X5283928Y-17251357D01*
X5298214Y-17222786D01*
X5312500Y-17208500D01*
X5341071Y-17194214D01*
X5569643Y-17465643D02*
X5583928Y-17479929D01*
X5569643Y-17494214D01*
X5555357Y-17479929D01*
X5569643Y-17465643D01*
X5569643Y-17494214D01*
X5855357Y-17194214D02*
X5712500Y-17194214D01*
X5698214Y-17337072D01*
X5712500Y-17322786D01*
X5741071Y-17308500D01*
X5812500Y-17308500D01*
X5841071Y-17322786D01*
X5855357Y-17337072D01*
X5869643Y-17365643D01*
X5869643Y-17437072D01*
X5855357Y-17465643D01*
X5841071Y-17479929D01*
X5812500Y-17494214D01*
X5741071Y-17494214D01*
X5712500Y-17479929D01*
X5698214Y-17465643D01*
X6055357Y-17194214D02*
X6083928Y-17194214D01*
X6112500Y-17208500D01*
X6126786Y-17222786D01*
X6141071Y-17251357D01*
X6155357Y-17308500D01*
X6155357Y-17379929D01*
X6141071Y-17437072D01*
X6126786Y-17465643D01*
X6112500Y-17479929D01*
X6083928Y-17494214D01*
X6055357Y-17494214D01*
X6026786Y-17479929D01*
X6012500Y-17465643D01*
X5998214Y-17437072D01*
X5983928Y-17379929D01*
X5983928Y-17308500D01*
X5998214Y-17251357D01*
X6012500Y-17222786D01*
X6026786Y-17208500D01*
X6055357Y-17194214D01*
X6341071Y-17194214D02*
X6369643Y-17194214D01*
X6398214Y-17208500D01*
X6412500Y-17222786D01*
X6426786Y-17251357D01*
X6441071Y-17308500D01*
X6441071Y-17379929D01*
X6426786Y-17437072D01*
X6412500Y-17465643D01*
X6398214Y-17479929D01*
X6369643Y-17494214D01*
X6341071Y-17494214D01*
X6312500Y-17479929D01*
X6298214Y-17465643D01*
X6283928Y-17437072D01*
X6269643Y-17379929D01*
X6269643Y-17308500D01*
X6283928Y-17251357D01*
X6298214Y-17222786D01*
X6312500Y-17208500D01*
X6341071Y-17194214D01*
X6569643Y-17494214D02*
X6569643Y-17294214D01*
X6569643Y-17322786D02*
X6583928Y-17308500D01*
X6612500Y-17294214D01*
X6655357Y-17294214D01*
X6683928Y-17308500D01*
X6698214Y-17337072D01*
X6698214Y-17494214D01*
X6698214Y-17337072D02*
X6712500Y-17308500D01*
X6741071Y-17294214D01*
X6783928Y-17294214D01*
X6812500Y-17308500D01*
X6826786Y-17337072D01*
X6826786Y-17494214D01*
X6969643Y-17494214D02*
X6969643Y-17294214D01*
X6969643Y-17322786D02*
X6983928Y-17308500D01*
X7012500Y-17294214D01*
X7055357Y-17294214D01*
X7083928Y-17308500D01*
X7098214Y-17337072D01*
X7098214Y-17494214D01*
X7098214Y-17337072D02*
X7112500Y-17308500D01*
X7141071Y-17294214D01*
X7183928Y-17294214D01*
X7212500Y-17308500D01*
X7226786Y-17337072D01*
X7226786Y-17494214D01*
X7812500Y-17179929D02*
X7555357Y-17565643D01*
X8198214Y-17194214D02*
X8226786Y-17194214D01*
X8255357Y-17208500D01*
X8269643Y-17222786D01*
X8283928Y-17251357D01*
X8298214Y-17308500D01*
X8298214Y-17379929D01*
X8283928Y-17437072D01*
X8269643Y-17465643D01*
X8255357Y-17479929D01*
X8226786Y-17494214D01*
X8198214Y-17494214D01*
X8169643Y-17479929D01*
X8155357Y-17465643D01*
X8141071Y-17437072D01*
X8126786Y-17379929D01*
X8126786Y-17308500D01*
X8141071Y-17251357D01*
X8155357Y-17222786D01*
X8169643Y-17208500D01*
X8198214Y-17194214D01*
X8426786Y-17465643D02*
X8441071Y-17479929D01*
X8426786Y-17494214D01*
X8412500Y-17479929D01*
X8426786Y-17465643D01*
X8426786Y-17494214D01*
X8626786Y-17194214D02*
X8655357Y-17194214D01*
X8683928Y-17208500D01*
X8698214Y-17222786D01*
X8712500Y-17251357D01*
X8726786Y-17308500D01*
X8726786Y-17379929D01*
X8712500Y-17437072D01*
X8698214Y-17465643D01*
X8683928Y-17479929D01*
X8655357Y-17494214D01*
X8626786Y-17494214D01*
X8598214Y-17479929D01*
X8583928Y-17465643D01*
X8569643Y-17437072D01*
X8555357Y-17379929D01*
X8555357Y-17308500D01*
X8569643Y-17251357D01*
X8583928Y-17222786D01*
X8598214Y-17208500D01*
X8626786Y-17194214D01*
X9012500Y-17494214D02*
X8841071Y-17494214D01*
X8926786Y-17494214D02*
X8926786Y-17194214D01*
X8898214Y-17237072D01*
X8869643Y-17265643D01*
X8841071Y-17279929D01*
X9155357Y-17494214D02*
X9212500Y-17494214D01*
X9241071Y-17479929D01*
X9255357Y-17465643D01*
X9283928Y-17422786D01*
X9298214Y-17365643D01*
X9298214Y-17251357D01*
X9283928Y-17222786D01*
X9269643Y-17208500D01*
X9241071Y-17194214D01*
X9183928Y-17194214D01*
X9155357Y-17208500D01*
X9141071Y-17222786D01*
X9126786Y-17251357D01*
X9126786Y-17322786D01*
X9141071Y-17351357D01*
X9155357Y-17365643D01*
X9183928Y-17379929D01*
X9241071Y-17379929D01*
X9269643Y-17365643D01*
X9283928Y-17351357D01*
X9298214Y-17322786D01*
X9398214Y-17194214D02*
X9598214Y-17194214D01*
X9469643Y-17494214D01*
X9698214Y-17194214D02*
X9698214Y-17251357D01*
X9812500Y-17194214D02*
X9812500Y-17251357D01*
X10255357Y-17608500D02*
X10241071Y-17594214D01*
X10212500Y-17551357D01*
X10198214Y-17522786D01*
X10183928Y-17479929D01*
X10169643Y-17408500D01*
X10169643Y-17351357D01*
X10183928Y-17279929D01*
X10198214Y-17237072D01*
X10212500Y-17208500D01*
X10241071Y-17165643D01*
X10255357Y-17151357D01*
X10426786Y-17194214D02*
X10455357Y-17194214D01*
X10483928Y-17208500D01*
X10498214Y-17222786D01*
X10512500Y-17251357D01*
X10526786Y-17308500D01*
X10526786Y-17379929D01*
X10512500Y-17437072D01*
X10498214Y-17465643D01*
X10483928Y-17479929D01*
X10455357Y-17494214D01*
X10426786Y-17494214D01*
X10398214Y-17479929D01*
X10383928Y-17465643D01*
X10369643Y-17437072D01*
X10355357Y-17379929D01*
X10355357Y-17308500D01*
X10369643Y-17251357D01*
X10383928Y-17222786D01*
X10398214Y-17208500D01*
X10426786Y-17194214D01*
X10883928Y-17494214D02*
X10883928Y-17194214D01*
X11012500Y-17494214D02*
X11012500Y-17337072D01*
X10998214Y-17308500D01*
X10969643Y-17294214D01*
X10926786Y-17294214D01*
X10898214Y-17308500D01*
X10883928Y-17322786D01*
X11198214Y-17494214D02*
X11169643Y-17479929D01*
X11155357Y-17465643D01*
X11141071Y-17437072D01*
X11141071Y-17351357D01*
X11155357Y-17322786D01*
X11169643Y-17308500D01*
X11198214Y-17294214D01*
X11241071Y-17294214D01*
X11269643Y-17308500D01*
X11283928Y-17322786D01*
X11298214Y-17351357D01*
X11298214Y-17437072D01*
X11283928Y-17465643D01*
X11269643Y-17479929D01*
X11241071Y-17494214D01*
X11198214Y-17494214D01*
X11469643Y-17494214D02*
X11441071Y-17479929D01*
X11426786Y-17451357D01*
X11426786Y-17194214D01*
X11698214Y-17479929D02*
X11669643Y-17494214D01*
X11612500Y-17494214D01*
X11583928Y-17479929D01*
X11569643Y-17451357D01*
X11569643Y-17337072D01*
X11583928Y-17308500D01*
X11612500Y-17294214D01*
X11669643Y-17294214D01*
X11698214Y-17308500D01*
X11712500Y-17337072D01*
X11712500Y-17365643D01*
X11569643Y-17394214D01*
X11826786Y-17479929D02*
X11855357Y-17494214D01*
X11912500Y-17494214D01*
X11941071Y-17479929D01*
X11955357Y-17451357D01*
X11955357Y-17437072D01*
X11941071Y-17408500D01*
X11912500Y-17394214D01*
X11869643Y-17394214D01*
X11841071Y-17379929D01*
X11826786Y-17351357D01*
X11826786Y-17337072D01*
X11841071Y-17308500D01*
X11869643Y-17294214D01*
X11912500Y-17294214D01*
X11941071Y-17308500D01*
X12312500Y-17379929D02*
X12541071Y-17379929D01*
X12426786Y-17494214D02*
X12426786Y-17265643D01*
X12898214Y-17222786D02*
X12912500Y-17208500D01*
X12941071Y-17194214D01*
X13012500Y-17194214D01*
X13041071Y-17208500D01*
X13055357Y-17222786D01*
X13069643Y-17251357D01*
X13069643Y-17279929D01*
X13055357Y-17322786D01*
X12883928Y-17494214D01*
X13069643Y-17494214D01*
X13412500Y-17479929D02*
X13441071Y-17494214D01*
X13498214Y-17494214D01*
X13526786Y-17479929D01*
X13541071Y-17451357D01*
X13541071Y-17437072D01*
X13526786Y-17408500D01*
X13498214Y-17394214D01*
X13455357Y-17394214D01*
X13426786Y-17379929D01*
X13412500Y-17351357D01*
X13412500Y-17337072D01*
X13426786Y-17308500D01*
X13455357Y-17294214D01*
X13498214Y-17294214D01*
X13526786Y-17308500D01*
X13712500Y-17494214D02*
X13683928Y-17479929D01*
X13669643Y-17451357D01*
X13669643Y-17194214D01*
X13869643Y-17494214D02*
X13841071Y-17479929D01*
X13826786Y-17465643D01*
X13812500Y-17437072D01*
X13812500Y-17351357D01*
X13826786Y-17322786D01*
X13841071Y-17308500D01*
X13869643Y-17294214D01*
X13912500Y-17294214D01*
X13941071Y-17308500D01*
X13955357Y-17322786D01*
X13969643Y-17351357D01*
X13969643Y-17437072D01*
X13955357Y-17465643D01*
X13941071Y-17479929D01*
X13912500Y-17494214D01*
X13869643Y-17494214D01*
X14055357Y-17294214D02*
X14169643Y-17294214D01*
X14098214Y-17194214D02*
X14098214Y-17451357D01*
X14112500Y-17479929D01*
X14141071Y-17494214D01*
X14169643Y-17494214D01*
X14255357Y-17479929D02*
X14283928Y-17494214D01*
X14341071Y-17494214D01*
X14369643Y-17479929D01*
X14383928Y-17451357D01*
X14383928Y-17437072D01*
X14369643Y-17408500D01*
X14341071Y-17394214D01*
X14298214Y-17394214D01*
X14269643Y-17379929D01*
X14255357Y-17351357D01*
X14255357Y-17337072D01*
X14269643Y-17308500D01*
X14298214Y-17294214D01*
X14341071Y-17294214D01*
X14369643Y-17308500D01*
X14483928Y-17608500D02*
X14498214Y-17594214D01*
X14526786Y-17551357D01*
X14541071Y-17522786D01*
X14555357Y-17479929D01*
X14569643Y-17408500D01*
X14569643Y-17351357D01*
X14555357Y-17279929D01*
X14541071Y-17237072D01*
X14526786Y-17208500D01*
X14498214Y-17165643D01*
X14483928Y-17151357D01*
X4962500Y-17719500D02*
X4962500Y-17789500D01*
X4927500Y-17754500D02*
X4997500Y-17754500D01*
X5341071Y-17590214D02*
X5369643Y-17590214D01*
X5398214Y-17604500D01*
X5412500Y-17618786D01*
X5426786Y-17647357D01*
X5441071Y-17704500D01*
X5441071Y-17775929D01*
X5426786Y-17833072D01*
X5412500Y-17861643D01*
X5398214Y-17875929D01*
X5369643Y-17890214D01*
X5341071Y-17890214D01*
X5312500Y-17875929D01*
X5298214Y-17861643D01*
X5283928Y-17833072D01*
X5269643Y-17775929D01*
X5269643Y-17704500D01*
X5283928Y-17647357D01*
X5298214Y-17618786D01*
X5312500Y-17604500D01*
X5341071Y-17590214D01*
X5569643Y-17861643D02*
X5583928Y-17875929D01*
X5569643Y-17890214D01*
X5555357Y-17875929D01*
X5569643Y-17861643D01*
X5569643Y-17890214D01*
X5683928Y-17590214D02*
X5883928Y-17590214D01*
X5755357Y-17890214D01*
X6055357Y-17590214D02*
X6083928Y-17590214D01*
X6112500Y-17604500D01*
X6126786Y-17618786D01*
X6141071Y-17647357D01*
X6155357Y-17704500D01*
X6155357Y-17775929D01*
X6141071Y-17833072D01*
X6126786Y-17861643D01*
X6112500Y-17875929D01*
X6083928Y-17890214D01*
X6055357Y-17890214D01*
X6026786Y-17875929D01*
X6012500Y-17861643D01*
X5998214Y-17833072D01*
X5983928Y-17775929D01*
X5983928Y-17704500D01*
X5998214Y-17647357D01*
X6012500Y-17618786D01*
X6026786Y-17604500D01*
X6055357Y-17590214D01*
X6341071Y-17590214D02*
X6369643Y-17590214D01*
X6398214Y-17604500D01*
X6412500Y-17618786D01*
X6426786Y-17647357D01*
X6441071Y-17704500D01*
X6441071Y-17775929D01*
X6426786Y-17833072D01*
X6412500Y-17861643D01*
X6398214Y-17875929D01*
X6369643Y-17890214D01*
X6341071Y-17890214D01*
X6312500Y-17875929D01*
X6298214Y-17861643D01*
X6283928Y-17833072D01*
X6269643Y-17775929D01*
X6269643Y-17704500D01*
X6283928Y-17647357D01*
X6298214Y-17618786D01*
X6312500Y-17604500D01*
X6341071Y-17590214D01*
X6569643Y-17890214D02*
X6569643Y-17690214D01*
X6569643Y-17718786D02*
X6583928Y-17704500D01*
X6612500Y-17690214D01*
X6655357Y-17690214D01*
X6683928Y-17704500D01*
X6698214Y-17733072D01*
X6698214Y-17890214D01*
X6698214Y-17733072D02*
X6712500Y-17704500D01*
X6741071Y-17690214D01*
X6783928Y-17690214D01*
X6812500Y-17704500D01*
X6826786Y-17733072D01*
X6826786Y-17890214D01*
X6969643Y-17890214D02*
X6969643Y-17690214D01*
X6969643Y-17718786D02*
X6983928Y-17704500D01*
X7012500Y-17690214D01*
X7055357Y-17690214D01*
X7083928Y-17704500D01*
X7098214Y-17733072D01*
X7098214Y-17890214D01*
X7098214Y-17733072D02*
X7112500Y-17704500D01*
X7141071Y-17690214D01*
X7183928Y-17690214D01*
X7212500Y-17704500D01*
X7226786Y-17733072D01*
X7226786Y-17890214D01*
X7812500Y-17575929D02*
X7555357Y-17961643D01*
X8198214Y-17590214D02*
X8226786Y-17590214D01*
X8255357Y-17604500D01*
X8269643Y-17618786D01*
X8283928Y-17647357D01*
X8298214Y-17704500D01*
X8298214Y-17775929D01*
X8283928Y-17833072D01*
X8269643Y-17861643D01*
X8255357Y-17875929D01*
X8226786Y-17890214D01*
X8198214Y-17890214D01*
X8169643Y-17875929D01*
X8155357Y-17861643D01*
X8141071Y-17833072D01*
X8126786Y-17775929D01*
X8126786Y-17704500D01*
X8141071Y-17647357D01*
X8155357Y-17618786D01*
X8169643Y-17604500D01*
X8198214Y-17590214D01*
X8426786Y-17861643D02*
X8441071Y-17875929D01*
X8426786Y-17890214D01*
X8412500Y-17875929D01*
X8426786Y-17861643D01*
X8426786Y-17890214D01*
X8626786Y-17590214D02*
X8655357Y-17590214D01*
X8683928Y-17604500D01*
X8698214Y-17618786D01*
X8712500Y-17647357D01*
X8726786Y-17704500D01*
X8726786Y-17775929D01*
X8712500Y-17833072D01*
X8698214Y-17861643D01*
X8683928Y-17875929D01*
X8655357Y-17890214D01*
X8626786Y-17890214D01*
X8598214Y-17875929D01*
X8583928Y-17861643D01*
X8569643Y-17833072D01*
X8555357Y-17775929D01*
X8555357Y-17704500D01*
X8569643Y-17647357D01*
X8583928Y-17618786D01*
X8598214Y-17604500D01*
X8626786Y-17590214D01*
X8841071Y-17618786D02*
X8855357Y-17604500D01*
X8883928Y-17590214D01*
X8955357Y-17590214D01*
X8983928Y-17604500D01*
X8998214Y-17618786D01*
X9012500Y-17647357D01*
X9012500Y-17675929D01*
X8998214Y-17718786D01*
X8826786Y-17890214D01*
X9012500Y-17890214D01*
X9112500Y-17590214D02*
X9312500Y-17590214D01*
X9183928Y-17890214D01*
X9555357Y-17590214D02*
X9498214Y-17590214D01*
X9469643Y-17604500D01*
X9455357Y-17618786D01*
X9426786Y-17661643D01*
X9412500Y-17718786D01*
X9412500Y-17833072D01*
X9426786Y-17861643D01*
X9441071Y-17875929D01*
X9469643Y-17890214D01*
X9526786Y-17890214D01*
X9555357Y-17875929D01*
X9569643Y-17861643D01*
X9583928Y-17833072D01*
X9583928Y-17761643D01*
X9569643Y-17733072D01*
X9555357Y-17718786D01*
X9526786Y-17704500D01*
X9469643Y-17704500D01*
X9441071Y-17718786D01*
X9426786Y-17733072D01*
X9412500Y-17761643D01*
X9698214Y-17590214D02*
X9698214Y-17647357D01*
X9812500Y-17590214D02*
X9812500Y-17647357D01*
X10255357Y-18004500D02*
X10241071Y-17990214D01*
X10212500Y-17947357D01*
X10198214Y-17918786D01*
X10183928Y-17875929D01*
X10169643Y-17804500D01*
X10169643Y-17747357D01*
X10183928Y-17675929D01*
X10198214Y-17633072D01*
X10212500Y-17604500D01*
X10241071Y-17561643D01*
X10255357Y-17547357D01*
X10355357Y-17618786D02*
X10369643Y-17604500D01*
X10398214Y-17590214D01*
X10469643Y-17590214D01*
X10498214Y-17604500D01*
X10512500Y-17618786D01*
X10526786Y-17647357D01*
X10526786Y-17675929D01*
X10512500Y-17718786D01*
X10341071Y-17890214D01*
X10526786Y-17890214D01*
X10883928Y-17890214D02*
X10883928Y-17590214D01*
X11012500Y-17890214D02*
X11012500Y-17733072D01*
X10998214Y-17704500D01*
X10969643Y-17690214D01*
X10926786Y-17690214D01*
X10898214Y-17704500D01*
X10883928Y-17718786D01*
X11198214Y-17890214D02*
X11169643Y-17875929D01*
X11155357Y-17861643D01*
X11141071Y-17833072D01*
X11141071Y-17747357D01*
X11155357Y-17718786D01*
X11169643Y-17704500D01*
X11198214Y-17690214D01*
X11241071Y-17690214D01*
X11269643Y-17704500D01*
X11283928Y-17718786D01*
X11298214Y-17747357D01*
X11298214Y-17833072D01*
X11283928Y-17861643D01*
X11269643Y-17875929D01*
X11241071Y-17890214D01*
X11198214Y-17890214D01*
X11469643Y-17890214D02*
X11441071Y-17875929D01*
X11426786Y-17847357D01*
X11426786Y-17590214D01*
X11698214Y-17875929D02*
X11669643Y-17890214D01*
X11612500Y-17890214D01*
X11583928Y-17875929D01*
X11569643Y-17847357D01*
X11569643Y-17733072D01*
X11583928Y-17704500D01*
X11612500Y-17690214D01*
X11669643Y-17690214D01*
X11698214Y-17704500D01*
X11712500Y-17733072D01*
X11712500Y-17761643D01*
X11569643Y-17790214D01*
X11826786Y-17875929D02*
X11855357Y-17890214D01*
X11912500Y-17890214D01*
X11941071Y-17875929D01*
X11955357Y-17847357D01*
X11955357Y-17833072D01*
X11941071Y-17804500D01*
X11912500Y-17790214D01*
X11869643Y-17790214D01*
X11841071Y-17775929D01*
X11826786Y-17747357D01*
X11826786Y-17733072D01*
X11841071Y-17704500D01*
X11869643Y-17690214D01*
X11912500Y-17690214D01*
X11941071Y-17704500D01*
X12055357Y-18004500D02*
X12069643Y-17990214D01*
X12098214Y-17947357D01*
X12112500Y-17918786D01*
X12126786Y-17875929D01*
X12141071Y-17804500D01*
X12141071Y-17747357D01*
X12126786Y-17675929D01*
X12112500Y-17633072D01*
X12098214Y-17604500D01*
X12069643Y-17561643D01*
X12055357Y-17547357D01*
X4985784Y-18178785D02*
X4985784Y-18122216D01*
X4929215Y-18122216D01*
X4929215Y-18178785D01*
X4985784Y-18178785D01*
X5341071Y-17986214D02*
X5369643Y-17986214D01*
X5398214Y-18000500D01*
X5412500Y-18014786D01*
X5426786Y-18043357D01*
X5441071Y-18100500D01*
X5441071Y-18171929D01*
X5426786Y-18229072D01*
X5412500Y-18257643D01*
X5398214Y-18271929D01*
X5369643Y-18286214D01*
X5341071Y-18286214D01*
X5312500Y-18271929D01*
X5298214Y-18257643D01*
X5283928Y-18229072D01*
X5269643Y-18171929D01*
X5269643Y-18100500D01*
X5283928Y-18043357D01*
X5298214Y-18014786D01*
X5312500Y-18000500D01*
X5341071Y-17986214D01*
X5569643Y-18257643D02*
X5583928Y-18271929D01*
X5569643Y-18286214D01*
X5555357Y-18271929D01*
X5569643Y-18257643D01*
X5569643Y-18286214D01*
X5755357Y-18114786D02*
X5726786Y-18100500D01*
X5712500Y-18086214D01*
X5698214Y-18057643D01*
X5698214Y-18043357D01*
X5712500Y-18014786D01*
X5726786Y-18000500D01*
X5755357Y-17986214D01*
X5812500Y-17986214D01*
X5841071Y-18000500D01*
X5855357Y-18014786D01*
X5869643Y-18043357D01*
X5869643Y-18057643D01*
X5855357Y-18086214D01*
X5841071Y-18100500D01*
X5812500Y-18114786D01*
X5755357Y-18114786D01*
X5726786Y-18129072D01*
X5712500Y-18143357D01*
X5698214Y-18171929D01*
X5698214Y-18229072D01*
X5712500Y-18257643D01*
X5726786Y-18271929D01*
X5755357Y-18286214D01*
X5812500Y-18286214D01*
X5841071Y-18271929D01*
X5855357Y-18257643D01*
X5869643Y-18229072D01*
X5869643Y-18171929D01*
X5855357Y-18143357D01*
X5841071Y-18129072D01*
X5812500Y-18114786D01*
X6055357Y-17986214D02*
X6083928Y-17986214D01*
X6112500Y-18000500D01*
X6126786Y-18014786D01*
X6141071Y-18043357D01*
X6155357Y-18100500D01*
X6155357Y-18171929D01*
X6141071Y-18229072D01*
X6126786Y-18257643D01*
X6112500Y-18271929D01*
X6083928Y-18286214D01*
X6055357Y-18286214D01*
X6026786Y-18271929D01*
X6012500Y-18257643D01*
X5998214Y-18229072D01*
X5983928Y-18171929D01*
X5983928Y-18100500D01*
X5998214Y-18043357D01*
X6012500Y-18014786D01*
X6026786Y-18000500D01*
X6055357Y-17986214D01*
X6341071Y-17986214D02*
X6369643Y-17986214D01*
X6398214Y-18000500D01*
X6412500Y-18014786D01*
X6426786Y-18043357D01*
X6441071Y-18100500D01*
X6441071Y-18171929D01*
X6426786Y-18229072D01*
X6412500Y-18257643D01*
X6398214Y-18271929D01*
X6369643Y-18286214D01*
X6341071Y-18286214D01*
X6312500Y-18271929D01*
X6298214Y-18257643D01*
X6283928Y-18229072D01*
X6269643Y-18171929D01*
X6269643Y-18100500D01*
X6283928Y-18043357D01*
X6298214Y-18014786D01*
X6312500Y-18000500D01*
X6341071Y-17986214D01*
X6569643Y-18286214D02*
X6569643Y-18086214D01*
X6569643Y-18114786D02*
X6583928Y-18100500D01*
X6612500Y-18086214D01*
X6655357Y-18086214D01*
X6683928Y-18100500D01*
X6698214Y-18129072D01*
X6698214Y-18286214D01*
X6698214Y-18129072D02*
X6712500Y-18100500D01*
X6741071Y-18086214D01*
X6783928Y-18086214D01*
X6812500Y-18100500D01*
X6826786Y-18129072D01*
X6826786Y-18286214D01*
X6969643Y-18286214D02*
X6969643Y-18086214D01*
X6969643Y-18114786D02*
X6983928Y-18100500D01*
X7012500Y-18086214D01*
X7055357Y-18086214D01*
X7083928Y-18100500D01*
X7098214Y-18129072D01*
X7098214Y-18286214D01*
X7098214Y-18129072D02*
X7112500Y-18100500D01*
X7141071Y-18086214D01*
X7183928Y-18086214D01*
X7212500Y-18100500D01*
X7226786Y-18129072D01*
X7226786Y-18286214D01*
X7812500Y-17971929D02*
X7555357Y-18357643D01*
X8198214Y-17986214D02*
X8226786Y-17986214D01*
X8255357Y-18000500D01*
X8269643Y-18014786D01*
X8283928Y-18043357D01*
X8298214Y-18100500D01*
X8298214Y-18171929D01*
X8283928Y-18229072D01*
X8269643Y-18257643D01*
X8255357Y-18271929D01*
X8226786Y-18286214D01*
X8198214Y-18286214D01*
X8169643Y-18271929D01*
X8155357Y-18257643D01*
X8141071Y-18229072D01*
X8126786Y-18171929D01*
X8126786Y-18100500D01*
X8141071Y-18043357D01*
X8155357Y-18014786D01*
X8169643Y-18000500D01*
X8198214Y-17986214D01*
X8426786Y-18257643D02*
X8441071Y-18271929D01*
X8426786Y-18286214D01*
X8412500Y-18271929D01*
X8426786Y-18257643D01*
X8426786Y-18286214D01*
X8626786Y-17986214D02*
X8655357Y-17986214D01*
X8683928Y-18000500D01*
X8698214Y-18014786D01*
X8712500Y-18043357D01*
X8726786Y-18100500D01*
X8726786Y-18171929D01*
X8712500Y-18229072D01*
X8698214Y-18257643D01*
X8683928Y-18271929D01*
X8655357Y-18286214D01*
X8626786Y-18286214D01*
X8598214Y-18271929D01*
X8583928Y-18257643D01*
X8569643Y-18229072D01*
X8555357Y-18171929D01*
X8555357Y-18100500D01*
X8569643Y-18043357D01*
X8583928Y-18014786D01*
X8598214Y-18000500D01*
X8626786Y-17986214D01*
X8826786Y-17986214D02*
X9012500Y-17986214D01*
X8912500Y-18100500D01*
X8955357Y-18100500D01*
X8983928Y-18114786D01*
X8998214Y-18129072D01*
X9012500Y-18157643D01*
X9012500Y-18229072D01*
X8998214Y-18257643D01*
X8983928Y-18271929D01*
X8955357Y-18286214D01*
X8869643Y-18286214D01*
X8841071Y-18271929D01*
X8826786Y-18257643D01*
X9298214Y-18286214D02*
X9126786Y-18286214D01*
X9212500Y-18286214D02*
X9212500Y-17986214D01*
X9183928Y-18029072D01*
X9155357Y-18057643D01*
X9126786Y-18071929D01*
X9569643Y-17986214D02*
X9426786Y-17986214D01*
X9412500Y-18129072D01*
X9426786Y-18114786D01*
X9455357Y-18100500D01*
X9526786Y-18100500D01*
X9555357Y-18114786D01*
X9569643Y-18129072D01*
X9583928Y-18157643D01*
X9583928Y-18229072D01*
X9569643Y-18257643D01*
X9555357Y-18271929D01*
X9526786Y-18286214D01*
X9455357Y-18286214D01*
X9426786Y-18271929D01*
X9412500Y-18257643D01*
X9698214Y-17986214D02*
X9698214Y-18043357D01*
X9812500Y-17986214D02*
X9812500Y-18043357D01*
X10255357Y-18400500D02*
X10241071Y-18386214D01*
X10212500Y-18343357D01*
X10198214Y-18314786D01*
X10183928Y-18271929D01*
X10169643Y-18200500D01*
X10169643Y-18143357D01*
X10183928Y-18071929D01*
X10198214Y-18029072D01*
X10212500Y-18000500D01*
X10241071Y-17957643D01*
X10255357Y-17943357D01*
X10355357Y-18014786D02*
X10369643Y-18000500D01*
X10398214Y-17986214D01*
X10469643Y-17986214D01*
X10498214Y-18000500D01*
X10512500Y-18014786D01*
X10526786Y-18043357D01*
X10526786Y-18071929D01*
X10512500Y-18114786D01*
X10341071Y-18286214D01*
X10526786Y-18286214D01*
X10641071Y-18014786D02*
X10655357Y-18000500D01*
X10683928Y-17986214D01*
X10755357Y-17986214D01*
X10783928Y-18000500D01*
X10798214Y-18014786D01*
X10812500Y-18043357D01*
X10812500Y-18071929D01*
X10798214Y-18114786D01*
X10626786Y-18286214D01*
X10812500Y-18286214D01*
X11169643Y-18286214D02*
X11169643Y-17986214D01*
X11298214Y-18286214D02*
X11298214Y-18129072D01*
X11283928Y-18100500D01*
X11255357Y-18086214D01*
X11212500Y-18086214D01*
X11183928Y-18100500D01*
X11169643Y-18114786D01*
X11483928Y-18286214D02*
X11455357Y-18271929D01*
X11441071Y-18257643D01*
X11426786Y-18229072D01*
X11426786Y-18143357D01*
X11441071Y-18114786D01*
X11455357Y-18100500D01*
X11483928Y-18086214D01*
X11526786Y-18086214D01*
X11555357Y-18100500D01*
X11569643Y-18114786D01*
X11583928Y-18143357D01*
X11583928Y-18229072D01*
X11569643Y-18257643D01*
X11555357Y-18271929D01*
X11526786Y-18286214D01*
X11483928Y-18286214D01*
X11755357Y-18286214D02*
X11726786Y-18271929D01*
X11712500Y-18243357D01*
X11712500Y-17986214D01*
X11983928Y-18271929D02*
X11955357Y-18286214D01*
X11898214Y-18286214D01*
X11869643Y-18271929D01*
X11855357Y-18243357D01*
X11855357Y-18129072D01*
X11869643Y-18100500D01*
X11898214Y-18086214D01*
X11955357Y-18086214D01*
X11983928Y-18100500D01*
X11998214Y-18129072D01*
X11998214Y-18157643D01*
X11855357Y-18186214D01*
X12112500Y-18271929D02*
X12141071Y-18286214D01*
X12198214Y-18286214D01*
X12226786Y-18271929D01*
X12241071Y-18243357D01*
X12241071Y-18229072D01*
X12226786Y-18200500D01*
X12198214Y-18186214D01*
X12155357Y-18186214D01*
X12126786Y-18171929D01*
X12112500Y-18143357D01*
X12112500Y-18129072D01*
X12126786Y-18100500D01*
X12155357Y-18086214D01*
X12198214Y-18086214D01*
X12226786Y-18100500D01*
X12341071Y-18400500D02*
X12355357Y-18386214D01*
X12383928Y-18343357D01*
X12398214Y-18314786D01*
X12412500Y-18271929D01*
X12426786Y-18200500D01*
X12426786Y-18143357D01*
X12412500Y-18071929D01*
X12398214Y-18029072D01*
X12383928Y-18000500D01*
X12355357Y-17957643D01*
X12341071Y-17943357D01*
X4947500Y-18596500D02*
X4997500Y-18546500D01*
X4947500Y-18496500D01*
X4897500Y-18546500D01*
X4947500Y-18596500D01*
X5441071Y-18682214D02*
X5269643Y-18682214D01*
X5355357Y-18682214D02*
X5355357Y-18382214D01*
X5326786Y-18425072D01*
X5298214Y-18453643D01*
X5269643Y-18467929D01*
X5569643Y-18653643D02*
X5583928Y-18667929D01*
X5569643Y-18682214D01*
X5555357Y-18667929D01*
X5569643Y-18653643D01*
X5569643Y-18682214D01*
X5769643Y-18382214D02*
X5798214Y-18382214D01*
X5826786Y-18396500D01*
X5841071Y-18410786D01*
X5855357Y-18439357D01*
X5869643Y-18496500D01*
X5869643Y-18567929D01*
X5855357Y-18625072D01*
X5841071Y-18653643D01*
X5826786Y-18667929D01*
X5798214Y-18682214D01*
X5769643Y-18682214D01*
X5741071Y-18667929D01*
X5726786Y-18653643D01*
X5712500Y-18625072D01*
X5698214Y-18567929D01*
X5698214Y-18496500D01*
X5712500Y-18439357D01*
X5726786Y-18410786D01*
X5741071Y-18396500D01*
X5769643Y-18382214D01*
X6055357Y-18382214D02*
X6083928Y-18382214D01*
X6112500Y-18396500D01*
X6126786Y-18410786D01*
X6141071Y-18439357D01*
X6155357Y-18496500D01*
X6155357Y-18567929D01*
X6141071Y-18625072D01*
X6126786Y-18653643D01*
X6112500Y-18667929D01*
X6083928Y-18682214D01*
X6055357Y-18682214D01*
X6026786Y-18667929D01*
X6012500Y-18653643D01*
X5998214Y-18625072D01*
X5983928Y-18567929D01*
X5983928Y-18496500D01*
X5998214Y-18439357D01*
X6012500Y-18410786D01*
X6026786Y-18396500D01*
X6055357Y-18382214D01*
X6341071Y-18382214D02*
X6369643Y-18382214D01*
X6398214Y-18396500D01*
X6412500Y-18410786D01*
X6426786Y-18439357D01*
X6441071Y-18496500D01*
X6441071Y-18567929D01*
X6426786Y-18625072D01*
X6412500Y-18653643D01*
X6398214Y-18667929D01*
X6369643Y-18682214D01*
X6341071Y-18682214D01*
X6312500Y-18667929D01*
X6298214Y-18653643D01*
X6283928Y-18625072D01*
X6269643Y-18567929D01*
X6269643Y-18496500D01*
X6283928Y-18439357D01*
X6298214Y-18410786D01*
X6312500Y-18396500D01*
X6341071Y-18382214D01*
X6569643Y-18682214D02*
X6569643Y-18482214D01*
X6569643Y-18510786D02*
X6583928Y-18496500D01*
X6612500Y-18482214D01*
X6655357Y-18482214D01*
X6683928Y-18496500D01*
X6698214Y-18525072D01*
X6698214Y-18682214D01*
X6698214Y-18525072D02*
X6712500Y-18496500D01*
X6741071Y-18482214D01*
X6783928Y-18482214D01*
X6812500Y-18496500D01*
X6826786Y-18525072D01*
X6826786Y-18682214D01*
X6969643Y-18682214D02*
X6969643Y-18482214D01*
X6969643Y-18510786D02*
X6983928Y-18496500D01*
X7012500Y-18482214D01*
X7055357Y-18482214D01*
X7083928Y-18496500D01*
X7098214Y-18525072D01*
X7098214Y-18682214D01*
X7098214Y-18525072D02*
X7112500Y-18496500D01*
X7141071Y-18482214D01*
X7183928Y-18482214D01*
X7212500Y-18496500D01*
X7226786Y-18525072D01*
X7226786Y-18682214D01*
X7812500Y-18367929D02*
X7555357Y-18753643D01*
X8198214Y-18382214D02*
X8226786Y-18382214D01*
X8255357Y-18396500D01*
X8269643Y-18410786D01*
X8283928Y-18439357D01*
X8298214Y-18496500D01*
X8298214Y-18567929D01*
X8283928Y-18625072D01*
X8269643Y-18653643D01*
X8255357Y-18667929D01*
X8226786Y-18682214D01*
X8198214Y-18682214D01*
X8169643Y-18667929D01*
X8155357Y-18653643D01*
X8141071Y-18625072D01*
X8126786Y-18567929D01*
X8126786Y-18496500D01*
X8141071Y-18439357D01*
X8155357Y-18410786D01*
X8169643Y-18396500D01*
X8198214Y-18382214D01*
X8426786Y-18653643D02*
X8441071Y-18667929D01*
X8426786Y-18682214D01*
X8412500Y-18667929D01*
X8426786Y-18653643D01*
X8426786Y-18682214D01*
X8626786Y-18382214D02*
X8655357Y-18382214D01*
X8683928Y-18396500D01*
X8698214Y-18410786D01*
X8712500Y-18439357D01*
X8726786Y-18496500D01*
X8726786Y-18567929D01*
X8712500Y-18625072D01*
X8698214Y-18653643D01*
X8683928Y-18667929D01*
X8655357Y-18682214D01*
X8626786Y-18682214D01*
X8598214Y-18667929D01*
X8583928Y-18653643D01*
X8569643Y-18625072D01*
X8555357Y-18567929D01*
X8555357Y-18496500D01*
X8569643Y-18439357D01*
X8583928Y-18410786D01*
X8598214Y-18396500D01*
X8626786Y-18382214D01*
X8826786Y-18382214D02*
X9012500Y-18382214D01*
X8912500Y-18496500D01*
X8955357Y-18496500D01*
X8983928Y-18510786D01*
X8998214Y-18525072D01*
X9012500Y-18553643D01*
X9012500Y-18625072D01*
X8998214Y-18653643D01*
X8983928Y-18667929D01*
X8955357Y-18682214D01*
X8869643Y-18682214D01*
X8841071Y-18667929D01*
X8826786Y-18653643D01*
X9155357Y-18682214D02*
X9212500Y-18682214D01*
X9241071Y-18667929D01*
X9255357Y-18653643D01*
X9283928Y-18610786D01*
X9298214Y-18553643D01*
X9298214Y-18439357D01*
X9283928Y-18410786D01*
X9269643Y-18396500D01*
X9241071Y-18382214D01*
X9183928Y-18382214D01*
X9155357Y-18396500D01*
X9141071Y-18410786D01*
X9126786Y-18439357D01*
X9126786Y-18510786D01*
X9141071Y-18539357D01*
X9155357Y-18553643D01*
X9183928Y-18567929D01*
X9241071Y-18567929D01*
X9269643Y-18553643D01*
X9283928Y-18539357D01*
X9298214Y-18510786D01*
X9555357Y-18482214D02*
X9555357Y-18682214D01*
X9483928Y-18367929D02*
X9412500Y-18582214D01*
X9598214Y-18582214D01*
X9698214Y-18382214D02*
X9698214Y-18439357D01*
X9812500Y-18382214D02*
X9812500Y-18439357D01*
X10255357Y-18796500D02*
X10241071Y-18782214D01*
X10212500Y-18739357D01*
X10198214Y-18710786D01*
X10183928Y-18667929D01*
X10169643Y-18596500D01*
X10169643Y-18539357D01*
X10183928Y-18467929D01*
X10198214Y-18425072D01*
X10212500Y-18396500D01*
X10241071Y-18353643D01*
X10255357Y-18339357D01*
X10526786Y-18682214D02*
X10355357Y-18682214D01*
X10441071Y-18682214D02*
X10441071Y-18382214D01*
X10412500Y-18425072D01*
X10383928Y-18453643D01*
X10355357Y-18467929D01*
X10641071Y-18410786D02*
X10655357Y-18396500D01*
X10683928Y-18382214D01*
X10755357Y-18382214D01*
X10783928Y-18396500D01*
X10798214Y-18410786D01*
X10812500Y-18439357D01*
X10812500Y-18467929D01*
X10798214Y-18510786D01*
X10626786Y-18682214D01*
X10812500Y-18682214D01*
X11169643Y-18682214D02*
X11169643Y-18382214D01*
X11298214Y-18682214D02*
X11298214Y-18525072D01*
X11283928Y-18496500D01*
X11255357Y-18482214D01*
X11212500Y-18482214D01*
X11183928Y-18496500D01*
X11169643Y-18510786D01*
X11483928Y-18682214D02*
X11455357Y-18667929D01*
X11441071Y-18653643D01*
X11426786Y-18625072D01*
X11426786Y-18539357D01*
X11441071Y-18510786D01*
X11455357Y-18496500D01*
X11483928Y-18482214D01*
X11526786Y-18482214D01*
X11555357Y-18496500D01*
X11569643Y-18510786D01*
X11583928Y-18539357D01*
X11583928Y-18625072D01*
X11569643Y-18653643D01*
X11555357Y-18667929D01*
X11526786Y-18682214D01*
X11483928Y-18682214D01*
X11755357Y-18682214D02*
X11726786Y-18667929D01*
X11712500Y-18639357D01*
X11712500Y-18382214D01*
X11983928Y-18667929D02*
X11955357Y-18682214D01*
X11898214Y-18682214D01*
X11869643Y-18667929D01*
X11855357Y-18639357D01*
X11855357Y-18525072D01*
X11869643Y-18496500D01*
X11898214Y-18482214D01*
X11955357Y-18482214D01*
X11983928Y-18496500D01*
X11998214Y-18525072D01*
X11998214Y-18553643D01*
X11855357Y-18582214D01*
X12112500Y-18667929D02*
X12141071Y-18682214D01*
X12198214Y-18682214D01*
X12226786Y-18667929D01*
X12241071Y-18639357D01*
X12241071Y-18625072D01*
X12226786Y-18596500D01*
X12198214Y-18582214D01*
X12155357Y-18582214D01*
X12126786Y-18567929D01*
X12112500Y-18539357D01*
X12112500Y-18525072D01*
X12126786Y-18496500D01*
X12155357Y-18482214D01*
X12198214Y-18482214D01*
X12226786Y-18496500D01*
X12341071Y-18796500D02*
X12355357Y-18782214D01*
X12383928Y-18739357D01*
X12398214Y-18710786D01*
X12412500Y-18667929D01*
X12426786Y-18596500D01*
X12426786Y-18539357D01*
X12412500Y-18467929D01*
X12398214Y-18425072D01*
X12383928Y-18396500D01*
X12355357Y-18353643D01*
X12341071Y-18339357D01*
M02*
